<svg width="381" height="92" viewBox="0 0 381 92" fill="none" xmlns="http://www.w3.org/2000/svg">
<path d="M11.3 90H10.3V91H11.3V90ZM11.3 25.5H12.3V23.8155L10.8211 24.6221L11.3 25.5ZM8.8 26.7L9.19392 27.6191L9.19392 27.6191L8.8 26.7ZM5.8 28L6.17139 28.9285L6.1862 28.9226L6.20082 28.9162L5.8 28ZM2.8 29.2L2.42861 28.2715L2.41729 28.276L2.40608 28.2808L2.8 29.2ZM0.2 30.4H-0.8V32.018L0.647216 31.2944L0.2 30.4ZM0.2 18L-0.278851 17.1221L-0.8 17.4064V18H0.2ZM3.3 16.4L3.74722 17.2944L3.76475 17.2857L3.78192 17.2762L3.3 16.4ZM7.6 14L7.10794 13.1294L7.6 14ZM11.9 11.4L12.445 12.2384L12.4594 12.2291L12.4735 12.2192L11.9 11.4ZM14.9 8.99999V7.99999H14.4858L14.1929 8.29289L14.9 8.99999ZM28 8.99999H29V7.99999H28V8.99999ZM28 90V91H29V90H28ZM12.3 90V25.5H10.3V90H12.3ZM10.8211 24.6221C10.1206 25.0042 9.31639 25.3907 8.40608 25.7809L9.19392 27.6191C10.1503 27.2093 11.0127 26.7958 11.7789 26.3779L10.8211 24.6221ZM8.40608 25.7809C7.47014 26.182 6.46782 26.6163 5.39918 27.0838L6.20082 28.9162C7.26551 28.4504 8.26319 28.018 9.19392 27.6191L8.40608 25.7809ZM5.42861 27.0715C5.4048 27.081 5.26492 27.137 5.24111 27.1465C5.2173 27.156 5.07742 27.212 5.05361 27.2215C5.0298 27.231 4.88992 27.287 4.86611 27.2965C4.8423 27.306 4.70242 27.362 4.67861 27.3715C4.6548 27.381 4.51492 27.437 4.49111 27.4465C4.4673 27.456 4.32742 27.512 4.30361 27.5215C4.2798 27.531 4.13992 27.587 4.11611 27.5965C4.0923 27.606 3.95242 27.662 3.92861 27.6715C3.4363 27.8684 2.92092 28.0746 2.42861 28.2715L3.17139 30.1285C3.20209 30.1162 3.32819 30.0658 3.35889 30.0535C3.38959 30.0412 3.51569 29.9908 3.54639 29.9785C3.57709 29.9662 3.70319 29.9158 3.73389 29.9035C3.76459 29.8912 3.89069 29.8408 3.92139 29.8285C3.95209 29.8162 4.07819 29.7658 4.10889 29.7535C4.13959 29.7412 4.26569 29.6908 4.29639 29.6785C4.32709 29.6662 4.45319 29.6158 4.48389 29.6035C4.51459 29.5912 4.64069 29.5408 4.67139 29.5285C4.78256 29.484 4.93522 29.4229 5.04639 29.3785C5.15756 29.334 5.31022 29.2729 5.42139 29.2285C5.53256 29.184 5.68522 29.1229 5.79639 29.0785C5.90756 29.034 6.06022 28.9729 6.17139 28.9285L5.42861 27.0715ZM2.40608 28.2808C1.4571 28.6876 0.572455 29.0957 -0.247216 29.5056L0.647216 31.2944C1.42755 30.9043 2.27623 30.5124 3.19392 30.1191L2.40608 28.2808ZM1.2 30.4V18H-0.8V30.4H1.2ZM0.678851 18.8779C1.39668 18.4864 2.41768 17.9592 3.74722 17.2944L2.85279 15.5056C1.51565 16.1741 0.469987 16.7136 -0.278851 17.1221L0.678851 18.8779ZM3.78192 17.2762C5.11912 16.5408 6.55587 15.7388 8.09206 14.8706L7.10794 13.1294C5.57747 13.9945 4.14755 14.7926 2.81808 15.5238L3.78192 17.2762ZM8.09206 14.8706C9.64148 13.9948 11.0926 13.1175 12.445 12.2384L11.355 10.5616C10.0407 11.4158 8.62519 12.2719 7.10794 13.1294L8.09206 14.8706ZM12.4735 12.2192C13.8256 11.2728 14.8801 10.4341 15.6071 9.7071L14.1929 8.29289C13.5866 8.89923 12.6411 9.66056 11.3265 10.5808L12.4735 12.2192ZM14.9 9.99999H28V7.99999H14.9V9.99999ZM27 8.99999V90H29V8.99999H27ZM28 89H11.3V91H28V89ZM52.1672 88.6L51.645 89.4529L51.6514 89.4568L51.6579 89.4606L52.1672 88.6ZM44.7672 80.4L45.6684 79.9667L44.7672 80.4ZM44.5672 19.2L43.6533 18.7938L43.6498 18.8019L44.5672 19.2ZM51.8672 10.8L51.345 9.94714L51.8672 10.8ZM76.7672 10.8L76.2372 11.648L76.245 11.6528L76.7672 10.8ZM83.9672 19.2L83.0472 19.5919L83.0516 19.6022L83.0562 19.6125L83.9672 19.2ZM83.8672 80.4L84.7685 80.8333L84.7716 80.8266L83.8672 80.4ZM76.4672 88.6L76.9765 89.4606L76.983 89.4568L76.9893 89.4529L76.4672 88.6ZM67.7672 75.1L66.9431 74.5335L66.9391 74.5394L66.9351 74.5453L67.7672 75.1ZM69.0672 71.5L68.0772 71.3586L68.0743 71.3795L68.0722 71.4005L69.0672 71.5ZM69.1672 28.2L68.1713 28.2905L68.1717 28.2948L69.1672 28.2ZM67.8672 24.4L67.0053 24.907L67.0231 24.9374L67.0431 24.9665L67.8672 24.4ZM60.7672 24.4L59.9276 23.8567L59.9234 23.8633L59.9192 23.87L60.7672 24.4ZM59.5672 28.2L60.5627 28.2948L60.5631 28.2905L59.5672 28.2ZM59.6672 71.5L58.6772 71.6414L58.6783 71.6483L59.6672 71.5ZM60.9672 75.1L60.1192 75.63L60.1388 75.6615L60.1608 75.6914L60.9672 75.1ZM64.3672 90.5C59.6301 90.5 55.7512 89.5592 52.6765 87.7394L51.6579 89.4606C55.1165 91.5075 59.371 92.5 64.3672 92.5V90.5ZM52.6893 87.7471C49.5875 85.8481 47.2521 83.2607 45.6684 79.9667L43.8659 80.8333C45.6156 84.4726 48.2135 87.3519 51.645 89.4529L52.6893 87.7471ZM45.6684 79.9667C44.0783 76.6592 43.2672 72.779 43.2672 68.3H41.2672C41.2672 73.021 42.1228 77.2075 43.8659 80.8333L45.6684 79.9667ZM43.2672 68.3V31.6H41.2672V68.3H43.2672ZM43.2672 31.6C43.2672 26.9731 44.0167 22.9805 45.4845 19.5981L43.6498 18.8019C42.051 22.4861 41.2672 26.7602 41.2672 31.6H43.2672ZM45.481 19.6061C47.0012 16.1857 49.3006 13.5439 52.3893 11.6528L51.345 9.94714C47.9004 12.0561 45.3332 15.0143 43.6534 18.7939L45.481 19.6061ZM52.3893 11.6528C55.4558 9.77541 59.4268 8.8 64.3672 8.8V6.8C59.1742 6.8 54.8119 7.82458 51.345 9.94714L52.3893 11.6528ZM64.3672 8.8C69.3088 8.8 73.2418 9.77589 76.2372 11.648L77.2972 9.952C73.8926 7.8241 69.5589 6.8 64.3672 6.8V8.8ZM76.245 11.6528C79.3303 13.5418 81.5934 16.1787 83.0472 19.5919L84.8872 18.8081C83.2743 15.0213 80.7374 12.0582 77.2893 9.94714L76.245 11.6528ZM83.0562 19.6125C84.5861 22.9909 85.3672 26.9783 85.3672 31.6H87.3672C87.3672 26.7551 86.5483 22.4757 84.8781 18.7875L83.0562 19.6125ZM85.3672 31.6V68.3H87.3672V31.6H85.3672ZM85.3672 68.3C85.3672 72.7094 84.5572 76.5933 82.9628 79.9734L84.7716 80.8266C86.5106 77.1401 87.3672 72.9573 87.3672 68.3H85.3672ZM82.9659 79.9667C81.3823 83.2607 79.0469 85.8481 75.945 87.7471L76.9893 89.4529C80.4208 87.3519 83.0188 84.4726 84.7684 80.8333L82.9659 79.9667ZM75.9579 87.7394C72.8812 89.5603 69.0348 90.5 64.3672 90.5V92.5C69.2996 92.5 73.5198 91.5064 76.9765 89.4606L75.9579 87.7394ZM64.3672 77.6C66.1787 77.6 67.688 77.0215 68.5992 75.6547L66.9351 74.5453C66.513 75.1785 65.7557 75.6 64.3672 75.6V77.6ZM68.5912 75.6665C69.4234 74.4561 69.9128 73.0943 70.0622 71.5995L68.0722 71.4005C67.955 72.5724 67.5776 73.6106 66.9431 74.5335L68.5912 75.6665ZM70.0571 71.6414C70.2613 70.2121 70.3672 68.9622 70.3672 67.9H68.3672C68.3672 68.8378 68.273 69.9879 68.0772 71.3586L70.0571 71.6414ZM70.3672 67.9V32H68.3672V67.9H70.3672ZM70.3672 32C70.3672 30.8286 70.2983 29.5296 70.1627 28.1052L68.1717 28.2948C68.3027 29.6704 68.3672 30.9048 68.3672 32H70.3672ZM70.1631 28.1095C70.0164 26.4959 69.5344 25.06 68.6912 23.8335L67.0431 24.9665C67.6666 25.8734 68.0513 26.9708 68.1713 28.2905L70.1631 28.1095ZM68.7291 23.893C67.8334 22.3703 66.2787 21.7 64.3672 21.7V23.7C65.789 23.7 66.5676 24.163 67.0053 24.907L68.7291 23.893ZM64.3672 21.7C62.4524 21.7 60.8898 22.3698 59.9276 23.8567L61.6068 24.9432C62.1113 24.1636 62.9486 23.7 64.3672 23.7V21.7ZM59.9192 23.87C59.1564 25.0905 58.7164 26.5133 58.5713 28.1095L60.5631 28.2905C60.6846 26.9533 61.0447 25.8428 61.6152 24.93L59.9192 23.87ZM58.5717 28.1052C58.436 29.5296 58.3672 30.8286 58.3672 32H60.3672C60.3672 30.9048 60.4317 29.6704 60.5627 28.2948L58.5717 28.1052ZM58.3672 32V67.9H60.3672V32H58.3672ZM58.3672 67.9C58.3672 68.9622 58.473 70.2121 58.6772 71.6414L60.6571 71.3586C60.4613 69.9879 60.3672 68.8378 60.3672 67.9H58.3672ZM58.6783 71.6483C58.8971 73.1073 59.3748 74.4389 60.1192 75.63L61.8152 74.57C61.2263 73.6277 60.8373 72.5593 60.6561 71.3517L58.6783 71.6483ZM60.1608 75.6914C61.1273 77.0093 62.5995 77.6 64.3672 77.6V75.6C63.0682 75.6 62.2738 75.1907 61.7736 74.5086L60.1608 75.6914ZM107.148 88.6L106.626 89.4529L106.632 89.4568L106.638 89.4606L107.148 88.6ZM99.7477 80.4L100.649 79.9667L99.7477 80.4ZM99.5477 19.2L98.6338 18.7938L98.6303 18.8019L99.5477 19.2ZM106.848 10.8L106.326 9.94714L106.848 10.8ZM131.748 10.8L131.218 11.648L131.226 11.6528L131.748 10.8ZM138.948 19.2L138.028 19.5919L138.032 19.6022L138.037 19.6125L138.948 19.2ZM138.848 80.4L139.749 80.8333L139.752 80.8266L138.848 80.4ZM131.448 88.6L131.957 89.4606L131.963 89.4568L131.97 89.4529L131.448 88.6ZM122.748 75.1L121.924 74.5335L121.92 74.5394L121.916 74.5453L122.748 75.1ZM124.048 71.5L123.058 71.3586L123.055 71.3795L123.053 71.4005L124.048 71.5ZM124.148 28.2L123.152 28.2905L123.152 28.2948L124.148 28.2ZM122.848 24.4L121.986 24.907L122.004 24.9374L122.024 24.9665L122.848 24.4ZM115.748 24.4L114.908 23.8567L114.904 23.8633L114.9 23.87L115.748 24.4ZM114.548 28.2L115.543 28.2948L115.544 28.2905L114.548 28.2ZM114.648 71.5L113.658 71.6414L113.659 71.6483L114.648 71.5ZM115.948 75.1L115.1 75.63L115.119 75.6615L115.141 75.6914L115.948 75.1ZM119.348 90.5C114.611 90.5 110.732 89.5592 107.657 87.7394L106.638 89.4606C110.097 91.5075 114.351 92.5 119.348 92.5V90.5ZM107.67 87.7471C104.568 85.8481 102.233 83.2607 100.649 79.9667L98.8464 80.8333C100.596 84.4726 103.194 87.3519 106.626 89.4529L107.67 87.7471ZM100.649 79.9667C99.0587 76.6592 98.2477 72.779 98.2477 68.3H96.2477C96.2477 73.021 97.1032 77.2075 98.8464 80.8333L100.649 79.9667ZM98.2477 68.3V31.6H96.2477V68.3H98.2477ZM98.2477 31.6C98.2477 26.9731 98.9972 22.9805 100.465 19.5981L98.6303 18.8019C97.0315 22.4861 96.2477 26.7602 96.2477 31.6H98.2477ZM100.461 19.6061C101.982 16.1857 104.281 13.5439 107.37 11.6528L106.326 9.94714C102.881 12.0561 100.314 15.0143 98.6338 18.7939L100.461 19.6061ZM107.37 11.6528C110.436 9.77541 114.407 8.8 119.348 8.8V6.8C114.155 6.8 109.792 7.82458 106.326 9.94714L107.37 11.6528ZM119.348 8.8C124.289 8.8 128.222 9.77589 131.218 11.648L132.278 9.952C128.873 7.8241 124.539 6.8 119.348 6.8V8.8ZM131.226 11.6528C134.311 13.5418 136.574 16.1787 138.028 19.5919L139.868 18.8081C138.255 15.0213 135.718 12.0582 132.27 9.94714L131.226 11.6528ZM138.037 19.6125C139.567 22.9909 140.348 26.9783 140.348 31.6H142.348C142.348 26.7551 141.529 22.4757 139.859 18.7875L138.037 19.6125ZM140.348 31.6V68.3H142.348V31.6H140.348ZM140.348 68.3C140.348 72.7094 139.538 76.5933 137.943 79.9734L139.752 80.8266C141.491 77.1401 142.348 72.9573 142.348 68.3H140.348ZM137.946 79.9667C136.363 83.2607 134.027 85.8481 130.926 87.7471L131.97 89.4529C135.401 87.3519 137.999 84.4726 139.749 80.8333L137.946 79.9667ZM130.938 87.7394C127.862 89.5603 124.015 90.5 119.348 90.5V92.5C124.28 92.5 128.5 91.5064 131.957 89.4606L130.938 87.7394ZM119.348 77.6C121.159 77.6 122.668 77.0215 123.58 75.6547L121.916 74.5453C121.494 75.1785 120.736 75.6 119.348 75.6V77.6ZM123.572 75.6665C124.404 74.4561 124.893 73.0943 125.043 71.5995L123.053 71.4005C122.935 72.5724 122.558 73.6106 121.924 74.5335L123.572 75.6665ZM125.038 71.6414C125.242 70.2121 125.348 68.9622 125.348 67.9H123.348C123.348 68.8378 123.254 69.9879 123.058 71.3586L125.038 71.6414ZM125.348 67.9V32H123.348V67.9H125.348ZM125.348 32C125.348 30.8286 125.279 29.5296 125.143 28.1052L123.152 28.2948C123.283 29.6704 123.348 30.9048 123.348 32H125.348ZM125.144 28.1095C124.997 26.4959 124.515 25.06 123.672 23.8335L122.024 24.9665C122.647 25.8734 123.032 26.9708 123.152 28.2905L125.144 28.1095ZM123.71 23.893C122.814 22.3703 121.259 21.7 119.348 21.7V23.7C120.769 23.7 121.548 24.163 121.986 24.907L123.71 23.893ZM119.348 21.7C117.433 21.7 115.87 22.3698 114.908 23.8567L116.587 24.9432C117.092 24.1636 117.929 23.7 119.348 23.7V21.7ZM114.9 23.87C114.137 25.0905 113.697 26.5133 113.552 28.1095L115.544 28.2905C115.665 26.9533 116.025 25.8428 116.596 24.93L114.9 23.87ZM113.552 28.1052C113.417 29.5296 113.348 30.8286 113.348 32H115.348C115.348 30.9048 115.412 29.6704 115.543 28.2948L113.552 28.1052ZM113.348 32V67.9H115.348V32H113.348ZM113.348 67.9C113.348 68.9622 113.454 70.2121 113.658 71.6414L115.638 71.3586C115.442 69.9879 115.348 68.8378 115.348 67.9H113.348ZM113.659 71.6483C113.878 73.1073 114.355 74.4389 115.1 75.63L116.796 74.57C116.207 73.6277 115.818 72.5593 115.637 71.3517L113.659 71.6483ZM115.141 75.6914C116.108 77.0093 117.58 77.6 119.348 77.6V75.6C118.049 75.6 117.254 75.1907 116.754 74.5086L115.141 75.6914ZM162.128 88.6L161.606 89.4529L161.612 89.4568L161.619 89.4606L162.128 88.6ZM154.728 80.4L155.629 79.9667L154.728 80.4ZM154.528 19.2L153.614 18.7938L153.611 18.8019L154.528 19.2ZM161.828 10.8L161.306 9.94714L161.828 10.8ZM186.728 10.8L186.198 11.648L186.206 11.6528L186.728 10.8ZM193.928 19.2L193.008 19.5919L193.013 19.6022L193.017 19.6125L193.928 19.2ZM193.828 80.4L194.729 80.8333L194.733 80.8266L193.828 80.4ZM186.428 88.6L186.937 89.4606L186.944 89.4568L186.95 89.4529L186.428 88.6ZM177.728 75.1L176.904 74.5335L176.9 74.5394L176.896 74.5453L177.728 75.1ZM179.028 71.5L178.038 71.3586L178.035 71.3795L178.033 71.4005L179.028 71.5ZM179.128 28.2L178.132 28.2905L178.133 28.2948L179.128 28.2ZM177.828 24.4L176.966 24.907L176.984 24.9374L177.004 24.9665L177.828 24.4ZM170.728 24.4L169.889 23.8567L169.884 23.8633L169.88 23.87L170.728 24.4ZM169.528 28.2L170.524 28.2948L170.524 28.2905L169.528 28.2ZM169.628 71.5L168.638 71.6414L168.639 71.6483L169.628 71.5ZM170.928 75.1L170.08 75.63L170.1 75.6615L170.122 75.6914L170.928 75.1ZM174.328 90.5C169.591 90.5 165.712 89.5592 162.637 87.7394L161.619 89.4606C165.077 91.5075 169.332 92.5 174.328 92.5V90.5ZM162.65 87.7471C159.548 85.8481 157.213 83.2607 155.629 79.9667L153.827 80.8333C155.577 84.4726 158.174 87.3519 161.606 89.4529L162.65 87.7471ZM155.629 79.9667C154.039 76.6592 153.228 72.779 153.228 68.3H151.228C151.228 73.021 152.084 77.2075 153.827 80.8333L155.629 79.9667ZM153.228 68.3V31.6H151.228V68.3H153.228ZM153.228 31.6C153.228 26.9731 153.978 22.9805 155.445 19.5981L153.611 18.8019C152.012 22.4861 151.228 26.7602 151.228 31.6H153.228ZM155.442 19.6061C156.962 16.1857 159.262 13.5439 162.35 11.6528L161.306 9.94714C157.861 12.0561 155.294 15.0143 153.614 18.7939L155.442 19.6061ZM162.35 11.6528C165.417 9.77541 169.388 8.8 174.328 8.8V6.8C169.135 6.8 164.773 7.82458 161.306 9.94714L162.35 11.6528ZM174.328 8.8C179.27 8.8 183.203 9.77589 186.198 11.648L187.258 9.952C183.854 7.8241 179.52 6.8 174.328 6.8V8.8ZM186.206 11.6528C189.291 13.5418 191.554 16.1787 193.008 19.5919L194.848 18.8081C193.235 15.0213 190.698 12.0582 187.25 9.94714L186.206 11.6528ZM193.017 19.6125C194.547 22.9909 195.328 26.9783 195.328 31.6H197.328C197.328 26.7551 196.509 22.4757 194.839 18.7875L193.017 19.6125ZM195.328 31.6V68.3H197.328V31.6H195.328ZM195.328 68.3C195.328 72.7094 194.518 76.5933 192.924 79.9734L194.733 80.8266C196.471 77.1401 197.328 72.9573 197.328 68.3H195.328ZM192.927 79.9667C191.343 83.2607 189.008 85.8481 185.906 87.7471L186.95 89.4529C190.382 87.3519 192.98 84.4726 194.729 80.8333L192.927 79.9667ZM185.919 87.7394C182.842 89.5603 178.996 90.5 174.328 90.5V92.5C179.261 92.5 183.481 91.5064 186.937 89.4606L185.919 87.7394ZM174.328 77.6C176.14 77.6 177.649 77.0215 178.56 75.6547L176.896 74.5453C176.474 75.1785 175.717 75.6 174.328 75.6V77.6ZM178.552 75.6665C179.384 74.4561 179.874 73.0943 180.023 71.5995L178.033 71.4005C177.916 72.5724 177.539 73.6106 176.904 74.5335L178.552 75.6665ZM180.018 71.6414C180.222 70.2121 180.328 68.9622 180.328 67.9H178.328C178.328 68.8378 178.234 69.9879 178.038 71.3586L180.018 71.6414ZM180.328 67.9V32H178.328V67.9H180.328ZM180.328 32C180.328 30.8286 180.259 29.5296 180.124 28.1052L178.133 28.2948C178.264 29.6704 178.328 30.9048 178.328 32H180.328ZM180.124 28.1095C179.977 26.4959 179.495 25.06 178.652 23.8335L177.004 24.9665C177.628 25.8734 178.012 26.9708 178.132 28.2905L180.124 28.1095ZM178.69 23.893C177.794 22.3703 176.24 21.7 174.328 21.7V23.7C175.75 23.7 176.529 24.163 176.966 24.907L178.69 23.893ZM174.328 21.7C172.413 21.7 170.851 22.3698 169.889 23.8567L171.568 24.9432C172.072 24.1636 172.91 23.7 174.328 23.7V21.7ZM169.88 23.87C169.117 25.0905 168.677 26.5133 168.532 28.1095L170.524 28.2905C170.646 26.9533 171.006 25.8428 171.576 24.93L169.88 23.87ZM168.533 28.1052C168.397 29.5296 168.328 30.8286 168.328 32H170.328C170.328 30.9048 170.393 29.6704 170.524 28.2948L168.533 28.1052ZM168.328 32V67.9H170.328V32H168.328ZM168.328 67.9C168.328 68.9622 168.434 70.2121 168.638 71.6414L170.618 71.3586C170.422 69.9879 170.328 68.8378 170.328 67.9H168.328ZM168.639 71.6483C168.858 73.1073 169.336 74.4389 170.08 75.63L171.776 74.57C171.187 73.6277 170.798 72.5593 170.617 71.3517L168.639 71.6483ZM170.122 75.6914C171.088 77.0093 172.56 77.6 174.328 77.6V75.6C173.029 75.6 172.235 75.1907 171.735 74.5086L170.122 75.6914ZM217.109 88.6L216.586 89.4529L216.593 89.4568L216.599 89.4606L217.109 88.6ZM209.709 80.4L210.61 79.9667L209.709 80.4ZM209.509 19.2L208.595 18.7938L208.591 18.8019L209.509 19.2ZM216.809 10.8L216.286 9.94714L216.809 10.8ZM241.709 10.8L241.179 11.648L241.186 11.6528L241.709 10.8ZM248.909 19.2L247.989 19.5919L247.993 19.6022L247.998 19.6125L248.909 19.2ZM248.809 80.4L249.71 80.8333L249.713 80.8266L248.809 80.4ZM241.409 88.6L241.918 89.4606L241.924 89.4568L241.931 89.4529L241.409 88.6ZM232.709 75.1L231.885 74.5335L231.881 74.5394L231.877 74.5453L232.709 75.1ZM234.009 71.5L233.019 71.3586L233.016 71.3795L233.014 71.4005L234.009 71.5ZM234.109 28.2L233.113 28.2905L233.113 28.2948L234.109 28.2ZM232.809 24.4L231.947 24.907L231.965 24.9374L231.985 24.9665L232.809 24.4ZM225.709 24.4L224.869 23.8567L224.865 23.8633L224.861 23.87L225.709 24.4ZM224.509 28.2L225.504 28.2948L225.504 28.2905L224.509 28.2ZM224.609 71.5L223.619 71.6414L223.62 71.6483L224.609 71.5ZM225.909 75.1L225.061 75.63L225.08 75.6615L225.102 75.6914L225.909 75.1ZM229.309 90.5C224.571 90.5 220.693 89.5592 217.618 87.7394L216.599 89.4606C220.058 91.5075 224.312 92.5 229.309 92.5V90.5ZM217.631 87.7471C214.529 85.8481 212.194 83.2607 210.61 79.9667L208.807 80.8333C210.557 84.4726 213.155 87.3519 216.586 89.4529L217.631 87.7471ZM210.61 79.9667C209.02 76.6592 208.209 72.779 208.209 68.3H206.209C206.209 73.021 207.064 77.2075 208.807 80.8333L210.61 79.9667ZM208.209 68.3V31.6H206.209V68.3H208.209ZM208.209 31.6C208.209 26.9731 208.958 22.9805 210.426 19.5981L208.591 18.8019C206.992 22.4861 206.209 26.7602 206.209 31.6H208.209ZM210.422 19.6061C211.943 16.1857 214.242 13.5439 217.331 11.6528L216.286 9.94714C212.842 12.0561 210.275 15.0143 208.595 18.7939L210.422 19.6061ZM217.331 11.6528C220.397 9.77541 224.368 8.8 229.309 8.8V6.8C224.116 6.8 219.753 7.82458 216.286 9.94714L217.331 11.6528ZM229.309 8.8C234.25 8.8 238.183 9.77589 241.179 11.648L242.239 9.952C238.834 7.8241 234.5 6.8 229.309 6.8V8.8ZM241.186 11.6528C244.272 13.5418 246.535 16.1787 247.989 19.5919L249.829 18.8081C248.216 15.0213 245.679 12.0582 242.231 9.94714L241.186 11.6528ZM247.998 19.6125C249.527 22.9909 250.309 26.9783 250.309 31.6H252.309C252.309 26.7551 251.49 22.4757 249.82 18.7875L247.998 19.6125ZM250.309 31.6V68.3H252.309V31.6H250.309ZM250.309 68.3C250.309 72.7094 249.499 76.5933 247.904 79.9734L249.713 80.8266C251.452 77.1401 252.309 72.9573 252.309 68.3H250.309ZM247.907 79.9667C246.324 83.2607 243.988 85.8481 240.886 87.7471L241.931 89.4529C245.362 87.3519 247.96 84.4726 249.71 80.8333L247.907 79.9667ZM240.899 87.7394C237.823 89.5603 233.976 90.5 229.309 90.5V92.5C234.241 92.5 238.461 91.5064 241.918 89.4606L240.899 87.7394ZM229.309 77.6C231.12 77.6 232.629 77.0215 233.541 75.6547L231.877 74.5453C231.454 75.1785 230.697 75.6 229.309 75.6V77.6ZM233.533 75.6665C234.365 74.4561 234.854 73.0943 235.004 71.5995L233.014 71.4005C232.896 72.5724 232.519 73.6106 231.885 74.5335L233.533 75.6665ZM234.999 71.6414C235.203 70.2121 235.309 68.9622 235.309 67.9H233.309C233.309 68.8378 233.214 69.9879 233.019 71.3586L234.999 71.6414ZM235.309 67.9V32H233.309V67.9H235.309ZM235.309 32C235.309 30.8286 235.24 29.5296 235.104 28.1052L233.113 28.2948C233.244 29.6704 233.309 30.9048 233.309 32H235.309ZM235.104 28.1095C234.958 26.4959 234.476 25.06 233.633 23.8335L231.985 24.9665C232.608 25.8734 232.993 26.9708 233.113 28.2905L235.104 28.1095ZM233.671 23.893C232.775 22.3703 231.22 21.7 229.309 21.7V23.7C230.73 23.7 231.509 24.163 231.947 24.907L233.671 23.893ZM229.309 21.7C227.394 21.7 225.831 22.3698 224.869 23.8567L226.548 24.9432C227.053 24.1636 227.89 23.7 229.309 23.7V21.7ZM224.861 23.87C224.098 25.0905 223.658 26.5133 223.513 28.1095L225.504 28.2905C225.626 26.9533 225.986 25.8428 226.557 24.93L224.861 23.87ZM223.513 28.1052C223.377 29.5296 223.309 30.8286 223.309 32H225.309C225.309 30.9048 225.373 29.6704 225.504 28.2948L223.513 28.1052ZM223.309 32V67.9H225.309V32H223.309ZM223.309 67.9C223.309 68.9622 223.414 70.2121 223.619 71.6414L225.599 71.3586C225.403 69.9879 225.309 68.8378 225.309 67.9H223.309ZM223.62 71.6483C223.839 73.1073 224.316 74.4389 225.061 75.63L226.757 74.57C226.168 73.6277 225.779 72.5593 225.598 71.3517L223.62 71.6483ZM225.102 75.6914C226.069 77.0093 227.541 77.6 229.309 77.6V75.6C228.01 75.6 227.215 75.1907 226.715 74.5086L225.102 75.6914ZM287.375 90L286.375 89.9965L286.372 91H287.375V90ZM287.575 32.2V31.2H286.578L286.575 32.1965L287.575 32.2ZM299.575 32.2L300.495 31.8081L300.236 31.2H299.575V32.2ZM311.375 59.9L310.455 60.2919L311.371 62.4425L312.294 60.2947L311.375 59.9ZM323.275 32.2V31.2H322.616L322.356 31.8053L323.275 32.2ZM335.275 32.2L336.275 32.1965L336.272 31.2H335.275V32.2ZM335.475 90V91H336.478L336.475 89.9965L335.475 90ZM322.775 90H321.775V91H322.775V90ZM322.775 59.6H323.775L321.852 59.216L322.775 59.6ZM313.875 81V82H314.542L314.798 81.384L313.875 81ZM309.075 81L308.153 81.3861L308.41 82H309.075V81ZM300.075 59.5L300.997 59.1139L299.075 59.5H300.075ZM300.075 90V91H301.075V90H300.075ZM288.375 90.0035L288.575 32.2035L286.575 32.1965L286.375 89.9965L288.375 90.0035ZM287.575 33.2H299.575V31.2H287.575V33.2ZM298.655 32.5919L310.455 60.2919L312.295 59.5081L300.495 31.8081L298.655 32.5919ZM312.294 60.2947L324.194 32.5947L322.356 31.8053L310.456 59.5053L312.294 60.2947ZM323.275 33.2H335.275V31.2H323.275V33.2ZM334.275 32.2035L334.475 90.0035L336.475 89.9965L336.275 32.1965L334.275 32.2035ZM335.475 89H322.775V91H335.475V89ZM323.775 90V59.6H321.775V90H323.775ZM321.852 59.216L312.952 80.616L314.798 81.384L323.698 59.984L321.852 59.216ZM313.875 80H309.075V82H313.875V80ZM309.997 80.6139L300.997 59.1139L299.153 59.8861L308.153 81.3861L309.997 80.6139ZM299.075 59.5V90H301.075V59.5H299.075ZM300.075 89H287.375V91H300.075V89ZM354.778 46L354.31 46.8838L354.326 46.8919L354.341 46.8995L354.778 46ZM349.978 41.2L349.067 41.6116L349.072 41.6229L349.978 41.2ZM348.578 32.5V31.5H347.578V32.5H348.578ZM360.278 32.5H361.278V31.5H360.278V32.5ZM361.278 36.7L360.486 37.3097L360.497 37.3252L360.51 37.3402L361.278 36.7ZM367.478 36.7L368.246 37.3402L368.259 37.3252L368.271 37.3097L367.478 36.7ZM367.178 28.9L366.422 29.5549V29.5549L367.178 28.9ZM359.878 27.4H358.878V28.4H359.878V27.4ZM359.878 20.2V19.2H358.878V20.2H359.878ZM366.778 18.9L367.485 19.6071L367.498 19.594L367.511 19.5804L366.778 18.9ZM367.178 11.3L366.326 11.8241L366.351 11.8632L366.378 11.9L367.178 11.3ZM361.178 11.4L360.364 10.8188L360.36 10.8247L360.356 10.8308L361.178 11.4ZM360.278 15.4V16.4H361.278V15.4H360.278ZM348.578 15.4H347.578V16.4H348.578V15.4ZM352.678 3.7L353.316 4.46975L353.322 4.4652L353.327 4.46056L352.678 3.7ZM375.678 3.3L375.084 4.10462L375.093 4.11117L375.678 3.3ZM377.978 19.5L378.771 20.1097L378.776 20.1025L378.782 20.0952L377.978 19.5ZM373.378 23.1L373.019 22.1667L370.373 23.1844L373.072 24.052L373.378 23.1ZM378.178 26.4L377.41 27.0402L377.418 27.0494L377.426 27.0585L378.178 26.4ZM375.978 44.1L375.336 43.3332L375.327 43.3407L375.978 44.1ZM364.378 46.7C360.386 46.7 357.357 46.1407 355.215 45.1005L354.341 46.8995C356.866 48.126 360.237 48.7 364.378 48.7V46.7ZM355.246 45.1162C353.139 44.0009 351.711 42.549 350.884 40.7771L349.072 41.6229C350.112 43.851 351.884 45.5991 354.31 46.8838L355.246 45.1162ZM350.889 40.7884C350.024 38.8719 349.578 36.6494 349.578 34.1H347.578C347.578 36.8839 348.066 39.3948 349.067 41.6116L350.889 40.7884ZM349.578 34.1V32.5H347.578V34.1H349.578ZM348.578 33.5H360.278V31.5H348.578V33.5ZM359.278 32.5V32.9H361.278V32.5H359.278ZM359.278 32.9C359.278 34.6777 359.63 36.1977 360.486 37.3097L362.071 36.0903C361.593 35.4689 361.278 34.4557 361.278 32.9H359.278ZM360.51 37.3402C361.435 38.4501 362.841 38.9 364.478 38.9V36.9C363.182 36.9 362.455 36.5499 362.046 36.0598L360.51 37.3402ZM364.478 38.9C366.018 38.9 367.339 38.4292 368.246 37.3402L366.71 36.0598C366.284 36.5708 365.605 36.9 364.478 36.9V38.9ZM368.271 37.3097C369.111 36.217 369.478 34.8124 369.478 33.2H367.478C367.478 34.521 367.178 35.4497 366.686 36.0903L368.271 37.3097ZM369.478 33.2C369.478 31.1907 369.012 29.4893 367.934 28.2451L366.422 29.5549C367.077 30.3107 367.478 31.476 367.478 33.2H369.478ZM367.934 28.2451C366.778 26.9112 364.837 26.4 362.478 26.4V28.4C364.652 28.4 365.845 28.8888 366.422 29.5549L367.934 28.2451ZM362.478 26.4H359.878V28.4H362.478V26.4ZM360.878 27.4V20.2H358.878V27.4H360.878ZM359.878 21.2H362.178V19.2H359.878V21.2ZM362.178 21.2C364.451 21.2 366.329 20.7638 367.485 19.6071L366.071 18.1929C365.494 18.7695 364.306 19.2 362.178 19.2V21.2ZM367.511 19.5804C368.609 18.3977 369.078 16.7481 369.078 14.8H367.078C367.078 16.4519 366.68 17.5356 366.045 18.2195L367.511 19.5804ZM369.078 14.8C369.078 13.159 368.761 11.7435 367.978 10.7L366.378 11.9C366.795 12.4565 367.078 13.3743 367.078 14.8H369.078ZM368.03 10.7759C367.259 9.52267 365.937 9 364.378 9V11C365.486 11 366.031 11.344 366.326 11.8241L368.03 10.7759ZM364.378 9C362.688 9 361.27 9.55066 360.364 10.8188L361.992 11.9812C362.419 11.3827 363.134 11 364.378 11V9ZM360.356 10.8308C359.598 11.9249 359.278 13.3514 359.278 15H361.278C361.278 13.5819 361.558 12.6084 362 11.9692L360.356 10.8308ZM359.278 15V15.4H361.278V15H359.278ZM360.278 14.4H348.578V16.4H360.278V14.4ZM349.578 15.4V13.8H347.578V15.4H349.578ZM349.578 13.8C349.578 9.5475 350.87 6.49892 353.316 4.46975L352.04 2.93024C349.02 5.4344 347.578 9.11916 347.578 13.8H349.578ZM353.327 4.46056C355.818 2.33461 359.453 1.19999 364.378 1.19999V-0.800007C359.17 -0.800007 355.005 0.398712 352.029 2.93943L353.327 4.46056ZM364.378 1.19999C368.973 1.19999 372.509 2.20345 375.084 4.10457L376.272 2.49542C373.248 0.263203 369.249 -0.800007 364.378 -0.800007V1.19999ZM375.093 4.11117C377.653 5.95623 378.978 8.72584 378.978 12.6H380.978C380.978 8.20749 379.437 4.7771 376.263 2.48882L375.093 4.11117ZM378.978 12.6C378.978 15.24 378.351 17.316 377.175 18.9048L378.782 20.0952C380.272 18.0839 380.978 15.56 380.978 12.6H378.978ZM377.186 18.8903C375.944 20.5041 374.553 21.5769 373.019 22.1667L373.737 24.0333C375.67 23.2898 377.345 21.9625 378.771 20.1097L377.186 18.8903ZM373.072 24.052C374.747 24.5903 376.19 25.5764 377.41 27.0402L378.946 25.7598C377.5 24.0236 375.743 22.8097 373.684 22.148L373.072 24.052ZM377.426 27.0585C378.59 28.3889 379.278 30.6599 379.278 34.1H381.278C381.278 30.4734 380.567 27.6111 378.931 25.7415L377.426 27.0585ZM379.278 34.1C379.278 38.1175 377.942 41.1514 375.336 43.3332L376.62 44.8668C379.747 42.2486 381.278 38.6159 381.278 34.1H379.278ZM375.327 43.3407C372.762 45.5396 369.154 46.7 364.378 46.7V48.7C369.469 48.7 373.594 47.4604 376.629 44.8593L375.327 43.3407Z" fill="#1B2B49"/>
</svg>
