<svg width="175" height="85" viewBox="0 0 175 85" fill="none" xmlns="http://www.w3.org/2000/svg">
<path d="M0.4 73H-0.6V74.9207L0.973463 73.8192L0.4 73ZM0.4 58.9L-0.185185 58.0891L-0.6 58.3885V58.9H0.4ZM19.8 44.9L20.3852 45.7109L21.517 44.8941L20.3796 44.0851L19.8 44.9ZM0.4 31.1H-0.6V31.6158L-0.179648 31.9149L0.4 31.1ZM0.4 17L0.973463 16.1808L-0.6 15.0793V17H0.4ZM31.4 38.7H32.4V38.1793L31.9735 37.8808L31.4 38.7ZM31.4 51.3L31.9735 52.1192L32.4 51.8207V51.3H31.4ZM1.4 73V58.9H-0.6V73H1.4ZM0.985186 59.7109L20.3852 45.7109L19.2148 44.0891L-0.185185 58.0891L0.985186 59.7109ZM20.3796 44.0851L0.979648 30.2851L-0.179648 31.9149L19.2204 45.7149L20.3796 44.0851ZM1.4 31.1V17H-0.6V31.1H1.4ZM-0.173462 17.8192L30.8265 39.5192L31.9735 37.8808L0.973463 16.1808L-0.173462 17.8192ZM30.4 38.7V51.3H32.4V38.7H30.4ZM30.8265 50.4808L-0.173462 72.1808L0.973463 73.8192L31.9735 52.1192L30.8265 50.4808ZM48.1437 83H47.1437V84H48.1437V83ZM48.1437 18.5H49.1437V16.8155L47.6649 17.6221L48.1437 18.5ZM45.6437 19.7L46.0377 20.6191V20.6191L45.6437 19.7ZM42.6437 21L43.0151 21.9285L43.03 21.9226L43.0446 21.9162L42.6437 21ZM39.6437 22.2L39.2724 21.2715L39.261 21.276L39.2498 21.2808L39.6437 22.2ZM37.0438 23.4H36.0438V25.018L37.491 24.2944L37.0438 23.4ZM37.0438 11L36.5649 10.1221L36.0438 10.4064V11H37.0438ZM40.1437 9.39999L40.591 10.2944L40.6085 10.2857L40.6257 10.2762L40.1437 9.39999ZM44.4437 7L43.9517 6.12943L44.4437 7ZM48.7438 4.4L49.2887 5.23844L49.3031 5.22908L49.3172 5.21923L48.7438 4.4ZM51.7438 1.99999V0.999992H51.3295L51.0366 1.29289L51.7438 1.99999ZM64.8438 1.99999H65.8438V0.999992H64.8438V1.99999ZM64.8438 83V84H65.8438V83H64.8438ZM49.1437 83V18.5H47.1437V83H49.1437ZM47.6649 17.6221C46.9643 18.0042 46.1601 18.3907 45.2498 18.7809L46.0377 20.6191C46.994 20.2093 47.8565 19.7958 48.6226 19.3779L47.6649 17.6221ZM45.2498 18.7809C44.3139 19.182 43.3116 19.6163 42.2429 20.0838L43.0446 21.9162C44.1093 21.4504 45.1069 21.018 46.0377 20.6191L45.2498 18.7809ZM42.2724 20.0715C42.2485 20.081 42.1087 20.137 42.0849 20.1465C42.061 20.156 41.9212 20.212 41.8974 20.2215C41.8735 20.231 41.7337 20.287 41.7099 20.2965C41.686 20.306 41.5462 20.362 41.5224 20.3715C41.4985 20.381 41.3587 20.437 41.3349 20.4465C41.311 20.456 41.1712 20.512 41.1474 20.5215C41.1235 20.531 40.9837 20.587 40.9599 20.5965C40.936 20.606 40.7962 20.662 40.7724 20.6715C40.2801 20.8684 39.7647 21.0746 39.2724 21.2715L40.0151 23.1285C40.0458 23.1162 40.1719 23.0658 40.2026 23.0535C40.2333 23.0412 40.3594 22.9908 40.3901 22.9785C40.4208 22.9662 40.5469 22.9158 40.5776 22.9035C40.6083 22.8912 40.7344 22.8408 40.7651 22.8285C40.7958 22.8162 40.9219 22.7658 40.9526 22.7535C40.9833 22.7412 41.1094 22.6908 41.1401 22.6785C41.1708 22.6662 41.2969 22.6158 41.3276 22.6035C41.3583 22.5912 41.4844 22.5408 41.5151 22.5285C41.6263 22.484 41.779 22.4229 41.8901 22.3785C42.0013 22.334 42.154 22.2729 42.2651 22.2285C42.3763 22.184 42.529 22.1229 42.6401 22.0785C42.7513 22.034 42.904 21.9729 43.0151 21.9285L42.2724 20.0715ZM39.2498 21.2808C38.3008 21.6876 37.4162 22.0957 36.5965 22.5056L37.491 24.2944C38.2713 23.9043 39.12 23.5124 40.0377 23.1191L39.2498 21.2808ZM38.0438 23.4V11H36.0438V23.4H38.0438ZM37.5226 11.8779C38.2404 11.4864 39.2614 10.9592 40.591 10.2944L39.6965 8.50557C38.3594 9.17414 37.3137 9.71365 36.5649 10.1221L37.5226 11.8779ZM40.6257 10.2762C41.9629 9.54075 43.3996 8.73884 44.9358 7.87056L43.9517 6.12943C42.4212 6.99448 40.9913 7.79257 39.6618 8.52378L40.6257 10.2762ZM44.9358 7.87056C46.4852 6.9948 47.9364 6.11748 49.2887 5.23844L48.1988 3.56155C46.8845 4.41585 45.4689 5.27186 43.9517 6.12943L44.9358 7.87056ZM49.3172 5.21923C50.6693 4.27277 51.7239 3.4341 52.4509 2.7071L51.0366 1.29289C50.4303 1.89923 49.4849 2.66056 48.1703 3.58077L49.3172 5.21923ZM51.7438 2.99999H64.8438V0.999992H51.7438V2.99999ZM63.8438 1.99999V83H65.8438V1.99999H63.8438ZM64.8438 82H48.1437V84H64.8438V82ZM85.7109 81.4L85.1314 82.215L85.1417 82.2222L85.1521 82.2293L85.7109 81.4ZM79.6109 72.5L80.5737 72.2297L79.6109 72.5ZM78.0109 59.3V58.3H77.0109V59.3H78.0109ZM94.1109 59.3H95.1109V58.3H94.1109V59.3ZM94.6109 66.8L93.6255 66.9699L94.6109 66.8ZM96.4109 71L95.7038 71.7071L95.731 71.7343L95.7601 71.7593L96.4109 71ZM100.311 72.1L100.273 71.1007L100.271 71.1008L100.311 72.1ZM104.011 70L103.135 69.5181L104.011 70ZM105.311 64.3L104.314 64.2213L104.313 64.2337L104.312 64.246L105.311 64.3ZM105.111 48.1L104.119 48.228L104.121 48.2436L104.124 48.2592L105.111 48.1ZM103.311 43.2L102.486 43.7647L102.503 43.7899L102.522 43.8139L103.311 43.2ZM95.2109 43.1L94.4635 42.4356V42.4356L95.2109 43.1ZM92.9109 48.7V49.7H93.7436L93.8944 48.8812L92.9109 48.7ZM78.5109 48.7L77.5115 48.6679L77.4783 49.7H78.5109V48.7ZM80.0109 1.99999V0.999992H79.0425L79.0115 1.96789L80.0109 1.99999ZM117.811 1.99999H118.811V0.999992H117.811V1.99999ZM117.811 16V17H118.811V16H117.811ZM93.4109 16V15H92.4634L92.4124 15.9462L93.4109 16ZM92.5109 32.7L91.5124 32.6462L91.3275 36.0773L93.3247 33.2812L92.5109 32.7ZM96.3109 30.3L96.6473 31.2417L96.662 31.2365L96.6766 31.2308L96.3109 30.3ZM102.311 28.9L102.404 29.8956L102.414 29.8948L102.423 29.8937L102.311 28.9ZM112.711 31.2L112.13 32.0137L112.141 32.0216L112.152 32.0291L112.711 31.2ZM119.111 40.1L118.167 40.4304L118.17 40.4373L118.172 40.4443L119.111 40.1ZM120.511 66.8L121.5 66.9465L121.501 66.9439L120.511 66.8ZM117.411 76.2L118.272 76.708L118.278 76.6985L117.411 76.2ZM110.711 82.3L110.264 81.4056L110.711 82.3ZM99.2109 83.5C93.3667 83.5 89.099 82.4774 86.2698 80.5707L85.1521 82.2293C88.4562 84.4559 93.1885 85.5 99.2109 85.5V83.5ZM86.2905 80.585C83.4906 78.5941 81.5834 75.8268 80.5737 72.2297L78.6481 72.7703C79.7718 76.7732 81.9312 79.9393 85.1314 82.215L86.2905 80.585ZM80.5737 72.2297C79.5373 68.5375 79.0109 64.2317 79.0109 59.3H77.0109C77.0109 64.3683 77.5512 68.8625 78.6481 72.7703L80.5737 72.2297ZM78.0109 60.3H94.1109V58.3H78.0109V60.3ZM93.1109 59.3C93.1109 62.3957 93.2787 64.9584 93.6255 66.9699L95.5964 66.6301C95.2765 64.7749 95.1109 62.3376 95.1109 59.3H93.1109ZM93.6255 66.9699C93.9745 68.9943 94.6272 70.6304 95.7038 71.7071L97.118 70.2929C96.4614 69.6362 95.914 68.4723 95.5964 66.6301L93.6255 66.9699ZM95.7601 71.7593C96.9449 72.7747 98.5234 73.1723 100.351 73.0992L100.271 71.1008C98.7652 71.161 97.7437 70.8253 97.0617 70.2407L95.7601 71.7593ZM100.349 73.0993C102.375 73.0214 103.958 72.1707 104.887 70.4819L103.135 69.5181C102.597 70.4959 101.714 71.0453 100.273 71.1007L100.349 73.0993ZM104.887 70.4819C105.724 68.9597 106.173 66.8879 106.309 64.354L104.312 64.246C104.183 66.6454 103.764 68.3736 103.135 69.5181L104.887 70.4819ZM106.308 64.3787C106.511 61.8113 106.611 58.7503 106.611 55.2H104.611C104.611 58.7164 104.511 61.722 104.314 64.2213L106.308 64.3787ZM106.611 55.2C106.611 52.4937 106.442 50.0721 106.098 47.9408L104.124 48.2592C104.447 50.2613 104.611 52.573 104.611 55.2H106.611ZM106.103 47.972C105.821 45.7912 105.177 43.9699 104.1 42.5861L102.522 43.8139C103.312 44.8301 103.867 46.2755 104.119 48.228L106.103 47.972ZM104.136 42.6353C103.049 41.0462 101.375 40.3 99.3109 40.3V42.3C100.847 42.3 101.84 42.8205 102.486 43.7647L104.136 42.6353ZM99.3109 40.3C97.371 40.3 95.728 41.0131 94.4635 42.4356L95.9583 43.7644C96.8272 42.7869 97.9175 42.3 99.3109 42.3V40.3ZM94.4635 42.4356C93.223 43.8313 92.4091 45.9041 91.9275 48.5188L93.8944 48.8812C94.3461 46.4292 95.0656 44.7687 95.9584 43.7644L94.4635 42.4356ZM92.9109 47.7H78.5109V49.7H92.9109V47.7ZM79.5104 48.7321L81.0104 2.0321L79.0115 1.96789L77.5115 48.6679L79.5104 48.7321ZM80.0109 2.99999H117.811V0.999992H80.0109V2.99999ZM116.811 1.99999V16H118.811V1.99999H116.811ZM117.811 15H93.4109V17H117.811V15ZM92.4124 15.9462L91.5124 32.6462L93.5095 32.7538L94.4095 16.0538L92.4124 15.9462ZM93.3247 33.2812C93.814 32.5961 94.8485 31.8842 96.6473 31.2417L95.9746 29.3583C94.0401 30.0492 92.5412 30.9372 91.6972 32.1188L93.3247 33.2812ZM96.6766 31.2308C98.4502 30.534 100.358 30.0875 102.404 29.8956L102.218 27.9044C99.9973 28.1125 97.905 28.5994 95.9453 29.3692L96.6766 31.2308ZM102.423 29.8937C106.365 29.4486 109.571 30.186 112.13 32.0137L113.292 30.3863C110.251 28.214 106.524 27.418 102.199 27.9063L102.423 29.8937ZM112.152 32.0291C114.803 33.8169 116.822 36.5868 118.167 40.4304L120.055 39.7696C118.6 35.6132 116.353 32.4498 113.27 30.3709L112.152 32.0291ZM118.172 40.4443C119.587 44.3021 120.311 49.0779 120.311 54.8H122.311C122.311 48.9221 121.569 43.8979 120.05 39.7557L118.172 40.4443ZM120.311 54.8C120.311 59.093 120.047 63.0442 119.521 66.6561L121.501 66.9439C122.042 63.2224 122.311 59.1737 122.311 54.8H120.311ZM119.522 66.6535C119.003 70.1518 118.005 73.1614 116.544 75.7015L118.278 76.6985C119.884 73.9053 120.952 70.6482 121.5 66.9465L119.522 66.6535ZM116.55 75.692C115.123 78.1116 113.04 80.0173 110.264 81.4056L111.158 83.1944C114.248 81.6493 116.633 79.4884 118.272 76.708L116.55 75.692ZM110.264 81.4056C107.517 82.779 103.853 83.5 99.2109 83.5V85.5C104.036 85.5 108.038 84.7544 111.158 83.1944L110.264 81.4056ZM139.89 81.6L139.368 82.4529L139.374 82.4568L139.381 82.4606L139.89 81.6ZM132.49 73.4L133.391 72.9667L132.49 73.4ZM132.29 12.2L131.376 11.7938L131.372 11.8019L132.29 12.2ZM139.59 3.8L139.068 2.94714L139.59 3.8ZM164.49 3.8L163.96 4.64803L163.968 4.65285L164.49 3.8ZM171.69 12.2L170.77 12.5919L170.774 12.6022L170.779 12.6125L171.69 12.2ZM171.59 73.4L172.491 73.8333L172.494 73.8266L171.59 73.4ZM164.19 81.6L164.699 82.4606L164.706 82.4568L164.712 82.4529L164.19 81.6ZM155.49 68.1L154.666 67.5335L154.662 67.5394L154.658 67.5453L155.49 68.1ZM156.79 64.5L155.8 64.3586L155.797 64.3795L155.795 64.4005L156.79 64.5ZM156.89 21.2L155.894 21.2905L155.894 21.2948L156.89 21.2ZM155.59 17.4L154.728 17.907L154.746 17.9374L154.766 17.9665L155.59 17.4ZM148.49 17.4L147.65 16.8567L147.646 16.8633L147.642 16.87L148.49 17.4ZM147.29 21.2L148.285 21.2948L148.286 21.2905L147.29 21.2ZM147.39 64.5L146.4 64.6414L146.401 64.6483L147.39 64.5ZM148.69 68.1L147.842 68.63L147.862 68.6615L147.883 68.6914L148.69 68.1ZM152.09 83.5C147.353 83.5 143.474 82.5592 140.399 80.7394L139.381 82.4606C142.839 84.5075 147.094 85.5 152.09 85.5V83.5ZM140.412 80.7471C137.31 78.8481 134.975 76.2607 133.391 72.9667L131.589 73.8333C133.338 77.4726 135.936 80.3519 139.368 82.4529L140.412 80.7471ZM133.391 72.9667C131.801 69.6592 130.99 65.779 130.99 61.3H128.99C128.99 66.021 129.845 70.2075 131.589 73.8333L133.391 72.9667ZM130.99 61.3V24.6H128.99V61.3H130.99ZM130.99 24.6C130.99 19.9731 131.739 15.9805 133.207 12.5981L131.372 11.8019C129.774 15.4861 128.99 19.7602 128.99 24.6H130.99ZM133.204 12.6061C134.724 9.18566 137.023 6.54389 140.112 4.65285L139.068 2.94714C135.623 5.0561 133.056 8.01434 131.376 11.7939L133.204 12.6061ZM140.112 4.65285C143.178 2.77541 147.149 1.8 152.09 1.8V-0.200005C146.897 -0.200005 142.535 0.824581 139.068 2.94714L140.112 4.65285ZM152.09 1.8C157.031 1.8 160.964 2.77589 163.96 4.64799L165.02 2.952C161.615 0.824104 157.282 -0.200005 152.09 -0.200005V1.8ZM163.968 4.65285C167.053 6.5418 169.316 9.17873 170.77 12.5919L172.61 11.8081C170.997 8.02127 168.46 5.05819 165.012 2.94714L163.968 4.65285ZM170.779 12.6125C172.309 15.9909 173.09 19.9783 173.09 24.6H175.09C175.09 19.7551 174.271 15.4757 172.601 11.7875L170.779 12.6125ZM173.09 24.6V61.3H175.09V24.6H173.09ZM173.09 61.3C173.09 65.7094 172.28 69.5933 170.685 72.9734L172.494 73.8266C174.233 70.1401 175.09 65.9573 175.09 61.3H173.09ZM170.689 72.9667C169.105 76.2607 166.77 78.8481 163.668 80.7471L164.712 82.4529C168.144 80.3519 170.741 77.4726 172.491 73.8333L170.689 72.9667ZM163.681 80.7394C160.604 82.5603 156.757 83.5 152.09 83.5V85.5C157.022 85.5 161.242 84.5064 164.699 82.4606L163.681 80.7394ZM152.09 70.6C153.901 70.6 155.411 70.0215 156.322 68.6547L154.658 67.5453C154.236 68.1785 153.478 68.6 152.09 68.6V70.6ZM156.314 68.6665C157.146 67.4561 157.635 66.0943 157.785 64.5995L155.795 64.4005C155.678 65.5724 155.3 66.6106 154.666 67.5335L156.314 68.6665ZM157.78 64.6414C157.984 63.2121 158.09 61.9622 158.09 60.9H156.09C156.09 61.8378 155.996 62.9879 155.8 64.3586L157.78 64.6414ZM158.09 60.9V25H156.09V60.9H158.09ZM158.09 25C158.09 23.8286 158.021 22.5296 157.885 21.1052L155.894 21.2948C156.025 22.6704 156.09 23.9048 156.09 25H158.09ZM157.886 21.1095C157.739 19.4959 157.257 18.06 156.414 16.8335L154.766 17.9665C155.389 18.8734 155.774 19.9708 155.894 21.2905L157.886 21.1095ZM156.452 16.893C155.556 15.3703 154.001 14.7 152.09 14.7V16.7C153.512 16.7 154.29 17.163 154.728 17.907L156.452 16.893ZM152.09 14.7C150.175 14.7 148.612 15.3698 147.65 16.8567L149.329 17.9432C149.834 17.1636 150.671 16.7 152.09 16.7V14.7ZM147.642 16.87C146.879 18.0905 146.439 19.5133 146.294 21.1095L148.286 21.2905C148.407 19.9533 148.767 18.8428 149.338 17.93L147.642 16.87ZM146.294 21.1052C146.159 22.5296 146.09 23.8286 146.09 25H148.09C148.09 23.9048 148.154 22.6704 148.285 21.2948L146.294 21.1052ZM146.09 25V60.9H148.09V25H146.09ZM146.09 60.9C146.09 61.9622 146.196 63.2121 146.4 64.6414L148.38 64.3586C148.184 62.9879 148.09 61.8378 148.09 60.9H146.09ZM146.401 64.6483C146.62 66.1073 147.097 67.4389 147.842 68.63L149.538 67.57C148.949 66.6277 148.56 65.5593 148.379 64.3517L146.401 64.6483ZM147.883 68.6914C148.85 70.0093 150.322 70.6 152.09 70.6V68.6C150.791 68.6 149.996 68.1907 149.496 67.5086L147.883 68.6914Z" fill="#1B2B49"/>
</svg>
