<svg width="136" height="85" viewBox="0 0 136 85" fill="none" xmlns="http://www.w3.org/2000/svg">
<path d="M0.4 73H-0.6V74.9207L0.973463 73.8192L0.4 73ZM0.4 58.9L-0.185185 58.0891L-0.6 58.3885V58.9H0.4ZM19.8 44.9L20.3852 45.7109L21.517 44.8941L20.3796 44.0851L19.8 44.9ZM0.4 31.1H-0.6V31.6158L-0.179648 31.9149L0.4 31.1ZM0.4 17L0.973463 16.1808L-0.6 15.0793V17H0.4ZM31.4 38.7H32.4V38.1793L31.9735 37.8808L31.4 38.7ZM31.4 51.3L31.9735 52.1192L32.4 51.8207V51.3H31.4ZM1.4 73V58.9H-0.6V73H1.4ZM0.985186 59.7109L20.3852 45.7109L19.2148 44.0891L-0.185185 58.0891L0.985186 59.7109ZM20.3796 44.0851L0.979648 30.2851L-0.179648 31.9149L19.2204 45.7149L20.3796 44.0851ZM1.4 31.1V17H-0.6V31.1H1.4ZM-0.173462 17.8192L30.8265 39.5192L31.9735 37.8808L0.973463 16.1808L-0.173462 17.8192ZM30.4 38.7V51.3H32.4V38.7H30.4ZM30.8265 50.4808L-0.173462 72.1808L0.973463 73.8192L31.9735 52.1192L30.8265 50.4808ZM38.9437 83H37.9437V84H38.9437V83ZM38.9437 71.2L38.1057 70.6544L37.9437 70.9032V71.2H38.9437ZM58.3438 41.4L57.5117 40.8453L57.5057 40.8544L58.3438 41.4ZM62.4438 35L61.6035 34.4579L61.5972 34.4676L61.5911 34.4774L62.4438 35ZM65.6438 28.7L64.7173 28.3236L64.7122 28.3362L64.7074 28.3489L65.6438 28.7ZM65.5438 16.8L66.3157 16.1643L65.5438 16.8ZM55.4438 20.6L54.4714 20.3666L54.4669 20.3852L54.4632 20.4039L55.4438 20.6ZM54.9438 30.2V31.2H55.9438V30.2H54.9438ZM38.7438 30.2H37.7438V31.2H38.7438V30.2ZM41.0438 13.1L41.9688 13.4799L41.9711 13.4742L41.0438 13.1ZM48.3438 4.2L48.8829 5.04235L48.8946 5.0346L48.3438 4.2ZM77.8438 6.59999L77.1241 7.29436L77.1303 7.30079L77.1366 7.3071L77.8438 6.59999ZM81.8438 31.4L80.9093 31.044L80.9055 31.0538L80.902 31.0637L81.8438 31.4ZM77.7438 39.6L76.9053 39.055L76.9019 39.0603L77.7438 39.6ZM72.3438 47.8L71.5147 47.2409L71.5129 47.2436L72.3438 47.8ZM57.5438 69.9L56.7129 69.3436L55.6705 70.9H57.5438V69.9ZM81.2438 69.9H82.2438V68.9H81.2438V69.9ZM81.2438 83V84H82.2438V83H81.2438ZM39.9437 83V71.2H37.9437V83H39.9437ZM39.7818 71.7456L59.1818 41.9456L57.5057 40.8544L38.1057 70.6544L39.7818 71.7456ZM59.1758 41.9547C60.6489 39.7451 62.0225 37.601 63.2964 35.5226L61.5911 34.4774C60.3317 36.5323 58.9719 38.6549 57.5117 40.8453L59.1758 41.9547ZM63.284 35.5421C64.6531 33.4201 65.7531 31.2564 66.5801 29.0511L64.7074 28.3489C63.9344 30.4102 62.9011 32.4465 61.6035 34.4579L63.284 35.5421ZM66.5702 29.0764C67.4861 26.8219 67.9437 24.4606 67.9437 22H65.9437C65.9437 24.2061 65.5347 26.3114 64.7173 28.3236L66.5702 29.0764ZM67.9437 22C67.9437 19.5631 67.4614 17.5555 66.3157 16.1643L64.7718 17.4357C65.4928 18.3111 65.9437 19.7702 65.9437 22H67.9437ZM66.3157 16.1643C65.1738 14.7777 63.612 14.1 61.7438 14.1V16.1C63.0755 16.1 64.047 16.5556 64.7718 17.4357L66.3157 16.1643ZM61.7438 14.1C59.7545 14.1 58.0718 14.6577 56.8366 15.8929L58.2509 17.3071C59.0157 16.5423 60.133 16.1 61.7438 16.1V14.1ZM56.8366 15.8929C55.681 17.0485 54.9053 18.5587 54.4714 20.3666L56.4161 20.8334C56.7822 19.3079 57.4065 18.1515 58.2509 17.3071L56.8366 15.8929ZM54.4632 20.4039C54.1145 22.1472 53.9438 24.081 53.9438 26.2H55.9438C55.9438 24.1856 56.1063 22.3862 56.4243 20.7961L54.4632 20.4039ZM53.9438 26.2V30.2H55.9438V26.2H53.9438ZM54.9438 29.2H38.7438V31.2H54.9438V29.2ZM39.7438 30.2V25.9H37.7438V30.2H39.7438ZM39.7438 25.9C39.7438 21.2061 40.4934 17.0722 41.9688 13.4799L40.1187 12.7201C38.5275 16.5945 37.7438 20.9939 37.7438 25.9H39.7438ZM41.9711 13.4742C43.4297 9.85947 45.7309 7.05952 48.8828 5.04227L47.8047 3.35772C44.29 5.60714 41.7245 8.74052 40.1164 12.7258L41.9711 13.4742ZM48.8946 5.0346C52.0162 2.97434 56.1724 1.9 61.4437 1.9V-0.100002C55.9151 -0.100002 51.338 1.02565 47.7929 3.36539L48.8946 5.0346ZM61.4437 1.9C68.5439 1.9 73.7081 3.75407 77.1241 7.29436L78.5634 5.90562C74.6461 1.84592 68.877 -0.100002 61.4437 -0.100002V1.9ZM77.1366 7.3071C80.6344 10.8049 82.4438 15.7553 82.4438 22.3H84.4438C84.4438 15.3781 82.5197 9.86176 78.5509 5.89289L77.1366 7.3071ZM82.4438 22.3C82.4438 25.456 81.9289 28.3675 80.9093 31.044L82.7782 31.756C83.892 28.8325 84.4438 25.6773 84.4438 22.3H82.4438ZM80.902 31.0637C79.93 33.7854 78.5991 36.4491 76.9053 39.055L78.5822 40.145C80.355 37.4175 81.7576 34.6146 82.7855 31.7363L80.902 31.0637ZM76.9019 39.0603C75.2399 41.6531 73.4442 44.3799 71.5147 47.2409L73.1728 48.3591C75.11 45.4868 76.9143 42.7469 78.5856 40.1397L76.9019 39.0603ZM71.5129 47.2436L56.7129 69.3436L58.3746 70.4564L73.1746 48.3564L71.5129 47.2436ZM57.5438 70.9H81.2438V68.9H57.5438V70.9ZM80.2438 69.9V83H82.2438V69.9H80.2438ZM81.2438 82H38.9437V84H81.2438V82ZM101.511 81.6L100.989 82.4529L100.995 82.4568L101.002 82.4606L101.511 81.6ZM94.1109 73.4L95.0122 72.9667L94.1109 73.4ZM93.9109 12.2L92.9971 11.7938L92.9936 11.8019L93.9109 12.2ZM101.211 3.8L100.689 2.94714L101.211 3.8ZM126.111 3.8L125.581 4.64803L125.589 4.65285L126.111 3.8ZM133.311 12.2L132.391 12.5919L132.395 12.6022L132.4 12.6125L133.311 12.2ZM133.211 73.4L134.112 73.8333L134.115 73.8266L133.211 73.4ZM125.811 81.6L126.32 82.4606L126.327 82.4568L126.333 82.4529L125.811 81.6ZM117.111 68.1L116.287 67.5335L116.283 67.5394L116.279 67.5453L117.111 68.1ZM118.411 64.5L117.421 64.3586L117.418 64.3795L117.416 64.4005L118.411 64.5ZM118.511 21.2L117.515 21.2905L117.515 21.2948L118.511 21.2ZM117.211 17.4L116.349 17.907L116.367 17.9374L116.387 17.9665L117.211 17.4ZM110.111 17.4L109.271 16.8567L109.267 16.8633L109.263 16.87L110.111 17.4ZM108.911 21.2L109.906 21.2948L109.907 21.2905L108.911 21.2ZM109.011 64.5L108.021 64.6414L108.022 64.6483L109.011 64.5ZM110.311 68.1L109.463 68.63L109.483 68.6615L109.505 68.6914L110.311 68.1ZM113.711 83.5C108.974 83.5 105.095 82.5592 102.02 80.7394L101.002 82.4606C104.46 84.5075 108.715 85.5 113.711 85.5V83.5ZM102.033 80.7471C98.9313 78.8481 96.5959 76.2607 95.0122 72.9667L93.2097 73.8333C94.9594 77.4726 97.5573 80.3519 100.989 82.4529L102.033 80.7471ZM95.0122 72.9667C93.422 69.6592 92.6109 65.779 92.6109 61.3H90.6109C90.6109 66.021 91.4665 70.2075 93.2097 73.8333L95.0122 72.9667ZM92.6109 61.3V24.6H90.6109V61.3H92.6109ZM92.6109 24.6C92.6109 19.9731 93.3604 15.9805 94.8283 12.5981L92.9936 11.8019C91.3948 15.4861 90.6109 19.7602 90.6109 24.6H92.6109ZM94.8248 12.6061C96.345 9.18566 98.6444 6.54389 101.733 4.65285L100.689 2.94714C97.2442 5.0561 94.6769 8.01434 92.9971 11.7939L94.8248 12.6061ZM101.733 4.65285C104.8 2.77541 108.771 1.8 113.711 1.8V-0.200005C108.518 -0.200005 104.156 0.824581 100.689 2.94714L101.733 4.65285ZM113.711 1.8C118.653 1.8 122.586 2.77589 125.581 4.64799L126.641 2.952C123.236 0.824104 118.903 -0.200005 113.711 -0.200005V1.8ZM125.589 4.65285C128.674 6.5418 130.937 9.17873 132.391 12.5919L134.231 11.8081C132.618 8.02127 130.081 5.05819 126.633 2.94714L125.589 4.65285ZM132.4 12.6125C133.93 15.9909 134.711 19.9783 134.711 24.6H136.711C136.711 19.7551 135.892 15.4757 134.222 11.7875L132.4 12.6125ZM134.711 24.6V61.3H136.711V24.6H134.711ZM134.711 61.3C134.711 65.7094 133.901 69.5933 132.307 72.9734L134.115 73.8266C135.854 70.1401 136.711 65.9573 136.711 61.3H134.711ZM132.31 72.9667C130.726 76.2607 128.391 78.8481 125.289 80.7471L126.333 82.4529C129.765 80.3519 132.363 77.4726 134.112 73.8333L132.31 72.9667ZM125.302 80.7394C122.225 82.5603 118.379 83.5 113.711 83.5V85.5C118.643 85.5 122.864 84.5064 126.32 82.4606L125.302 80.7394ZM113.711 70.6C115.522 70.6 117.032 70.0215 117.943 68.6547L116.279 67.5453C115.857 68.1785 115.099 68.6 113.711 68.6V70.6ZM117.935 68.6665C118.767 67.4561 119.257 66.0943 119.406 64.5995L117.416 64.4005C117.299 65.5724 116.921 66.6106 116.287 67.5335L117.935 68.6665ZM119.401 64.6414C119.605 63.2121 119.711 61.9622 119.711 60.9H117.711C117.711 61.8378 117.617 62.9879 117.421 64.3586L119.401 64.6414ZM119.711 60.9V25H117.711V60.9H119.711ZM119.711 25C119.711 23.8286 119.642 22.5296 119.506 21.1052L117.515 21.2948C117.646 22.6704 117.711 23.9048 117.711 25H119.711ZM119.507 21.1095C119.36 19.4959 118.878 18.06 118.035 16.8335L116.387 17.9665C117.01 18.8734 117.395 19.9708 117.515 21.2905L119.507 21.1095ZM118.073 16.893C117.177 15.3703 115.622 14.7 113.711 14.7V16.7C115.133 16.7 115.911 17.163 116.349 17.907L118.073 16.893ZM113.711 14.7C111.796 14.7 110.234 15.3698 109.271 16.8567L110.951 17.9432C111.455 17.1636 112.292 16.7 113.711 16.7V14.7ZM109.263 16.87C108.5 18.0905 108.06 19.5133 107.915 21.1095L109.907 21.2905C110.028 19.9533 110.388 18.8428 110.959 17.93L109.263 16.87ZM107.915 21.1052C107.78 22.5296 107.711 23.8286 107.711 25H109.711C109.711 23.9048 109.775 22.6704 109.906 21.2948L107.915 21.1052ZM107.711 25V60.9H109.711V25H107.711ZM107.711 60.9C107.711 61.9622 107.817 63.2121 108.021 64.6414L110.001 64.3586C109.805 62.9879 109.711 61.8378 109.711 60.9H107.711ZM108.022 64.6483C108.241 66.1073 108.719 67.4389 109.463 68.63L111.159 67.57C110.57 66.6277 110.181 65.5593 110 64.3517L108.022 64.6483ZM109.505 68.6914C110.471 70.0093 111.943 70.6 113.711 70.6V68.6C112.412 68.6 111.618 68.1907 111.117 67.5086L109.505 68.6914Z" fill="#1B2B49"/>
</svg>
