<svg width="158" height="41" viewBox="0 0 158 41" fill="none" xmlns="http://www.w3.org/2000/svg">
<path d="M21.2347 23.9405C19.8878 23.9405 18.5653 23.7298 17.312 23.3157C16.6979 23.1062 15.943 23.2984 15.5682 23.6833L13.0945 25.5507C10.2257 24.0193 8.45863 22.2528 6.94819 19.4056L8.76061 16.9963C9.23149 16.5261 9.40039 15.8392 9.19804 15.1946C8.7821 13.9348 8.57081 12.6129 8.57081 11.2654C8.57086 10.2919 7.77892 9.5 6.80554 9.5H2.76533C1.79194 9.5 1 10.2919 1 11.2653C1 22.4229 10.0772 31.5 21.2347 31.5C22.2081 31.5 23.0001 30.7081 23.0001 29.7347V25.7058C23 24.7324 22.2081 23.9405 21.2347 23.9405Z" fill="#1B2B49"/>
<path d="M40.6006 9.45605H43.335V10.6729H40.6006V13.4346H39.3838V10.6729H36.6562V9.45605H39.3838V6.66699H40.6006V9.45605ZM45.7822 15L49.7061 6.41406H44.5176V5.00586H51.4355V6.10645L47.5117 15H45.7822ZM56.2207 11.165C56.2207 10.3994 56.2936 9.65202 56.4395 8.92285C56.5898 8.19368 56.8177 7.4987 57.123 6.83789C57.4284 6.17708 57.8135 5.56641 58.2783 5.00586H59.6797C59.028 5.8763 58.5358 6.84017 58.2031 7.89746C57.875 8.95475 57.7109 10.0394 57.7109 11.1514C57.7109 11.876 57.7839 12.5938 57.9297 13.3047C58.0755 14.0156 58.2943 14.6992 58.5859 15.3555C58.8776 16.0163 59.2376 16.6361 59.666 17.2148H58.2783C57.8135 16.668 57.4284 16.071 57.123 15.4238C56.8177 14.7767 56.5898 14.0931 56.4395 13.373C56.2936 12.653 56.2207 11.917 56.2207 11.165ZM67.8623 12.8057H66.5088V15H64.9229V12.8057H60.377V11.5889L64.9434 4.97852H66.5088V11.4727H67.8623V12.8057ZM64.9229 11.4727V8.99121C64.9229 8.78613 64.9251 8.57878 64.9297 8.36914C64.9388 8.15495 64.9479 7.94987 64.957 7.75391C64.9661 7.55794 64.9753 7.37793 64.9844 7.21387C64.9935 7.04525 65.0003 6.90625 65.0049 6.79688H64.9502C64.8636 6.97917 64.7679 7.16602 64.6631 7.35742C64.5583 7.54427 64.4466 7.72656 64.3281 7.9043L61.8672 11.4727H64.9229ZM69.8857 15L73.8096 6.41406H68.6211V5.00586H75.5391V6.10645L71.6152 15H69.8857ZM83.1406 7.28906C83.1406 7.74023 83.0495 8.13216 82.8672 8.46484C82.6849 8.79753 82.4342 9.07096 82.1152 9.28516C81.8008 9.49479 81.4362 9.64518 81.0215 9.73633V9.78418C81.819 9.88444 82.4206 10.1351 82.8262 10.5361C83.2363 10.9372 83.4414 11.4681 83.4414 12.1289C83.4414 12.7077 83.3024 13.2249 83.0244 13.6807C82.7464 14.1318 82.3203 14.4873 81.7461 14.7471C81.1719 15.0068 80.4336 15.1367 79.5312 15.1367C78.9889 15.1367 78.4854 15.0934 78.0205 15.0068C77.5602 14.9202 77.1227 14.7812 76.708 14.5898V13.1611C77.1318 13.3708 77.583 13.5326 78.0615 13.6465C78.54 13.7604 78.9935 13.8174 79.4219 13.8174C80.2559 13.8174 80.8506 13.6624 81.2061 13.3525C81.5615 13.0381 81.7393 12.6051 81.7393 12.0537C81.7393 11.6982 81.6458 11.4066 81.459 11.1787C81.2767 10.9508 80.9919 10.7799 80.6045 10.666C80.2217 10.5521 79.7272 10.4951 79.1211 10.4951H78.2393V9.20312H79.1279C79.7067 9.20312 80.1715 9.13477 80.5225 8.99805C80.8734 8.85677 81.1263 8.66309 81.2812 8.41699C81.4408 8.1709 81.5205 7.88379 81.5205 7.55566C81.5205 7.12728 81.3815 6.7946 81.1035 6.55762C80.8255 6.31608 80.4131 6.19531 79.8662 6.19531C79.529 6.19531 79.2214 6.23405 78.9434 6.31152C78.6699 6.389 78.417 6.48698 78.1846 6.60547C77.9521 6.72396 77.7311 6.85156 77.5215 6.98828L76.749 5.87402C77.1273 5.59147 77.5785 5.35221 78.1025 5.15625C78.6266 4.96029 79.2373 4.8623 79.9346 4.8623C80.96 4.8623 81.7507 5.08333 82.3066 5.52539C82.8626 5.96289 83.1406 6.55078 83.1406 7.28906ZM88.0146 11.1582C88.0146 11.9147 87.9417 12.653 87.7959 13.373C87.6501 14.0931 87.4245 14.7767 87.1191 15.4238C86.8184 16.071 86.431 16.668 85.957 17.2148H84.5762C85.0046 16.6361 85.3646 16.0163 85.6562 15.3555C85.9479 14.6947 86.1667 14.0088 86.3125 13.2979C86.4583 12.5869 86.5312 11.8691 86.5312 11.1445C86.5312 10.4062 86.4561 9.67708 86.3057 8.95703C86.1598 8.23698 85.9411 7.54427 85.6494 6.87891C85.3577 6.20898 84.9954 5.58464 84.5625 5.00586H85.957C86.431 5.56641 86.8184 6.17708 87.1191 6.83789C87.4245 7.4987 87.6501 8.19368 87.7959 8.92285C87.9417 9.64746 88.0146 10.3926 88.0146 11.1582ZM99.6152 15H92.8477V13.79L95.4385 11.165C95.9398 10.6546 96.3522 10.2148 96.6758 9.8457C96.9993 9.47201 97.2386 9.11882 97.3936 8.78613C97.5531 8.45345 97.6328 8.09115 97.6328 7.69922C97.6328 7.21615 97.4938 6.85156 97.2158 6.60547C96.9378 6.35482 96.571 6.22949 96.1152 6.22949C95.6823 6.22949 95.2812 6.31608 94.9121 6.48926C94.5475 6.65788 94.1693 6.89941 93.7773 7.21387L92.8955 6.1543C93.1735 5.91732 93.4697 5.70085 93.7842 5.50488C94.1032 5.30892 94.4587 5.15397 94.8506 5.04004C95.2425 4.92155 95.6891 4.8623 96.1904 4.8623C96.8239 4.8623 97.3708 4.97624 97.8311 5.2041C98.2913 5.42741 98.6445 5.73958 98.8906 6.14062C99.1413 6.54167 99.2666 7.00879 99.2666 7.54199C99.2666 8.07975 99.1595 8.5765 98.9453 9.03223C98.7311 9.48796 98.4258 9.93913 98.0293 10.3857C97.6328 10.8278 97.1611 11.3086 96.6143 11.8281L94.8848 13.5166V13.5918H99.6152V15ZM107.989 12.8057H106.636V15H105.05V12.8057H100.504V11.5889L105.07 4.97852H106.636V11.4727H107.989V12.8057ZM105.05 11.4727V8.99121C105.05 8.78613 105.052 8.57878 105.057 8.36914C105.066 8.15495 105.075 7.94987 105.084 7.75391C105.093 7.55794 105.102 7.37793 105.111 7.21387C105.12 7.04525 105.127 6.90625 105.132 6.79688H105.077C104.991 6.97917 104.895 7.16602 104.79 7.35742C104.685 7.54427 104.574 7.72656 104.455 7.9043L101.994 11.4727H105.05ZM115.639 9.99609C115.639 10.8027 115.575 11.5251 115.447 12.1631C115.324 12.7965 115.128 13.3343 114.859 13.7764C114.59 14.2184 114.24 14.5557 113.807 14.7881C113.374 15.0205 112.85 15.1367 112.234 15.1367C111.464 15.1367 110.828 14.9339 110.327 14.5283C109.826 14.1182 109.454 13.5303 109.213 12.7646C108.971 11.9945 108.851 11.0716 108.851 9.99609C108.851 8.92057 108.96 8 109.179 7.23438C109.402 6.46419 109.762 5.87402 110.259 5.46387C110.756 5.05371 111.414 4.84863 112.234 4.84863C113.009 4.84863 113.647 5.05371 114.148 5.46387C114.654 5.86947 115.028 6.45736 115.27 7.22754C115.516 7.99316 115.639 8.91602 115.639 9.99609ZM110.471 9.99609C110.471 10.8392 110.525 11.5433 110.635 12.1084C110.749 12.6735 110.936 13.0973 111.195 13.3799C111.455 13.6579 111.801 13.7969 112.234 13.7969C112.667 13.7969 113.014 13.6579 113.273 13.3799C113.533 13.1019 113.72 12.6803 113.834 12.1152C113.952 11.5501 114.012 10.8438 114.012 9.99609C114.012 9.15755 113.955 8.45573 113.841 7.89062C113.727 7.32552 113.54 6.90169 113.28 6.61914C113.021 6.33203 112.672 6.18848 112.234 6.18848C111.797 6.18848 111.448 6.33203 111.188 6.61914C110.933 6.90169 110.749 7.32552 110.635 7.89062C110.525 8.45573 110.471 9.15755 110.471 9.99609ZM116.746 11.9238V10.5635H120.273V11.9238H116.746ZM128.162 15H121.395V13.79L123.985 11.165C124.487 10.6546 124.899 10.2148 125.223 9.8457C125.546 9.47201 125.785 9.11882 125.94 8.78613C126.1 8.45345 126.18 8.09115 126.18 7.69922C126.18 7.21615 126.041 6.85156 125.763 6.60547C125.485 6.35482 125.118 6.22949 124.662 6.22949C124.229 6.22949 123.828 6.31608 123.459 6.48926C123.094 6.65788 122.716 6.89941 122.324 7.21387L121.442 6.1543C121.72 5.91732 122.017 5.70085 122.331 5.50488C122.65 5.30892 123.006 5.15397 123.397 5.04004C123.789 4.92155 124.236 4.8623 124.737 4.8623C125.371 4.8623 125.918 4.97624 126.378 5.2041C126.838 5.42741 127.191 5.73958 127.438 6.14062C127.688 6.54167 127.813 7.00879 127.813 7.54199C127.813 8.07975 127.706 8.5765 127.492 9.03223C127.278 9.48796 126.973 9.93913 126.576 10.3857C126.18 10.8278 125.708 11.3086 125.161 11.8281L123.432 13.5166V13.5918H128.162V15ZM136.16 9.26465C136.16 9.8571 136.117 10.4382 136.03 11.0078C135.948 11.5775 135.802 12.1107 135.593 12.6074C135.388 13.1042 135.103 13.5439 134.738 13.9268C134.378 14.305 133.923 14.6012 133.371 14.8154C132.82 15.0296 132.154 15.1367 131.375 15.1367C131.179 15.1367 130.951 15.1253 130.691 15.1025C130.436 15.0843 130.227 15.057 130.062 15.0205V13.6807C130.236 13.7308 130.429 13.7718 130.644 13.8037C130.862 13.8311 131.079 13.8447 131.293 13.8447C132.136 13.8447 132.792 13.6875 133.262 13.373C133.736 13.0586 134.071 12.6257 134.267 12.0742C134.467 11.5228 134.581 10.8962 134.608 10.1943H134.526C134.394 10.4131 134.228 10.6136 134.027 10.7959C133.827 10.9736 133.578 11.1172 133.282 11.2266C132.986 11.3314 132.626 11.3838 132.202 11.3838C131.628 11.3838 131.127 11.263 130.698 11.0215C130.274 10.7799 129.944 10.429 129.707 9.96875C129.475 9.50391 129.358 8.94564 129.358 8.29395C129.358 7.58757 129.493 6.97917 129.762 6.46875C130.031 5.95833 130.411 5.56641 130.903 5.29297C131.396 5.01497 131.974 4.87598 132.64 4.87598C133.141 4.87598 133.604 4.96712 134.027 5.14941C134.456 5.32715 134.829 5.60059 135.148 5.96973C135.467 6.33431 135.716 6.79232 135.894 7.34375C136.071 7.89062 136.16 8.53092 136.16 9.26465ZM132.66 6.20215C132.154 6.20215 131.742 6.37305 131.423 6.71484C131.104 7.05208 130.944 7.57161 130.944 8.27344C130.944 8.8431 131.081 9.29427 131.354 9.62695C131.628 9.95964 132.047 10.126 132.612 10.126C133.004 10.126 133.341 10.0462 133.624 9.88672C133.911 9.72266 134.132 9.5153 134.287 9.26465C134.447 9.014 134.526 8.75879 134.526 8.49902C134.526 8.23014 134.488 7.96126 134.41 7.69238C134.337 7.4235 134.223 7.17741 134.068 6.9541C133.913 6.73079 133.717 6.55078 133.48 6.41406C133.248 6.27279 132.975 6.20215 132.66 6.20215ZM137.281 11.9238V10.5635H140.809V11.9238H137.281ZM145.3 4.86914C145.879 4.86914 146.4 4.96029 146.865 5.14258C147.33 5.32031 147.699 5.58691 147.973 5.94238C148.246 6.29785 148.383 6.73763 148.383 7.26172C148.383 7.66732 148.299 8.02051 148.13 8.32129C147.966 8.62207 147.743 8.88639 147.46 9.11426C147.177 9.33757 146.861 9.53581 146.51 9.70898C146.902 9.90039 147.262 10.1214 147.59 10.3721C147.923 10.6182 148.189 10.9076 148.39 11.2402C148.595 11.5729 148.697 11.9626 148.697 12.4092C148.697 12.9697 148.554 13.4551 148.267 13.8652C147.984 14.2708 147.59 14.5853 147.084 14.8086C146.578 15.0273 145.988 15.1367 145.313 15.1367C144.589 15.1367 143.971 15.0296 143.461 14.8154C142.951 14.6012 142.563 14.2959 142.299 13.8994C142.035 13.4984 141.902 13.0199 141.902 12.4639C141.902 12.0036 141.993 11.6048 142.176 11.2676C142.358 10.9303 142.602 10.6387 142.907 10.3926C143.217 10.1465 143.557 9.93913 143.926 9.77051C143.611 9.58366 143.324 9.37402 143.064 9.1416C142.805 8.90462 142.597 8.63346 142.442 8.32812C142.292 8.01823 142.217 7.66048 142.217 7.25488C142.217 6.73535 142.356 6.30013 142.634 5.94922C142.912 5.59375 143.283 5.32487 143.748 5.14258C144.217 4.96029 144.735 4.86914 145.3 4.86914ZM143.434 12.4023C143.434 12.8398 143.589 13.1999 143.898 13.4824C144.208 13.765 144.671 13.9062 145.286 13.9062C145.897 13.9062 146.362 13.7673 146.681 13.4893C147 13.2113 147.159 12.8444 147.159 12.3887C147.159 12.097 147.077 11.8395 146.913 11.6162C146.754 11.3929 146.537 11.1947 146.264 11.0215C145.995 10.8438 145.696 10.6797 145.368 10.5293L145.149 10.4404C144.794 10.5908 144.489 10.7617 144.233 10.9531C143.978 11.14 143.78 11.3519 143.639 11.5889C143.502 11.8258 143.434 12.097 143.434 12.4023ZM145.286 6.10645C144.844 6.10645 144.479 6.21582 144.192 6.43457C143.91 6.64876 143.769 6.95866 143.769 7.36426C143.769 7.65137 143.837 7.89746 143.974 8.10254C144.115 8.30762 144.304 8.48535 144.541 8.63574C144.778 8.78158 145.04 8.91829 145.327 9.0459C145.605 8.92285 145.856 8.78841 146.079 8.64258C146.307 8.49219 146.487 8.31445 146.619 8.10938C146.756 7.89974 146.824 7.64909 146.824 7.35742C146.824 6.95638 146.681 6.64876 146.394 6.43457C146.111 6.21582 145.742 6.10645 145.286 6.10645ZM157.071 12.8057H155.718V15H154.132V12.8057H149.586V11.5889L154.152 4.97852H155.718V11.4727H157.071V12.8057ZM154.132 11.4727V8.99121C154.132 8.78613 154.134 8.57878 154.139 8.36914C154.148 8.15495 154.157 7.94987 154.166 7.75391C154.175 7.55794 154.184 7.37793 154.193 7.21387C154.202 7.04525 154.209 6.90625 154.214 6.79688H154.159C154.073 6.97917 153.977 7.16602 153.872 7.35742C153.767 7.54427 153.656 7.72656 153.537 7.9043L151.076 11.4727H154.132Z" fill="#262626"/>
<path d="M42.5859 30.4375C42.5859 31.0156 42.3926 31.4785 42.0059 31.8262C41.623 32.1699 41.123 32.3887 40.5059 32.4824V32.5234C41.248 32.6133 41.8164 32.8359 42.2109 33.1914C42.6055 33.543 42.8027 34.0039 42.8027 34.5742C42.8027 35.0742 42.6719 35.5156 42.4102 35.8984C42.1484 36.2812 41.7578 36.5801 41.2383 36.7949C40.7188 37.0098 40.0742 37.1172 39.3047 37.1172C38.7461 37.1172 38.2363 37.0781 37.7754 37C37.3145 36.9258 36.9043 36.8086 36.5449 36.6484V35.4297C36.791 35.5469 37.0605 35.6484 37.3535 35.7344C37.6504 35.8164 37.9512 35.8809 38.2559 35.9277C38.5645 35.9707 38.8535 35.9922 39.123 35.9922C39.8887 35.9922 40.457 35.8633 40.8281 35.6055C41.1992 35.3477 41.3848 34.9824 41.3848 34.5098C41.3848 34.0254 41.1445 33.6719 40.6641 33.4492C40.1836 33.2266 39.5254 33.1152 38.6895 33.1152H37.6699V31.9902H38.625C39.2461 31.9902 39.7441 31.9355 40.1191 31.8262C40.4941 31.7168 40.7656 31.5605 40.9336 31.3574C41.1016 31.1543 41.1855 30.9121 41.1855 30.6309C41.1855 30.2598 41.0371 29.9707 40.7402 29.7637C40.4473 29.5527 40.041 29.4473 39.5215 29.4473C39.0293 29.4473 38.5977 29.5137 38.2266 29.6465C37.8555 29.7793 37.502 29.9531 37.166 30.168L36.5273 29.2246C36.7891 29.0449 37.0742 28.8867 37.3828 28.75C37.6953 28.6133 38.0391 28.5059 38.4141 28.4277C38.7891 28.3496 39.2012 28.3105 39.6504 28.3105C40.2754 28.3105 40.8047 28.4023 41.2383 28.5859C41.6758 28.7656 42.0098 29.0156 42.2402 29.3359C42.4707 29.6562 42.5859 30.0234 42.5859 30.4375ZM46.9219 30.3906C47.7422 30.3906 48.3613 30.5723 48.7793 30.9355C49.2012 31.2988 49.4121 31.8652 49.4121 32.6348V37H48.4336L48.1699 36.0801H48.123C47.9395 36.3145 47.75 36.5078 47.5547 36.6602C47.3594 36.8125 47.1328 36.9258 46.875 37C46.6211 37.0781 46.3105 37.1172 45.9434 37.1172C45.5566 37.1172 45.2109 37.0469 44.9062 36.9062C44.6016 36.7617 44.3613 36.543 44.1855 36.25C44.0098 35.957 43.9219 35.5859 43.9219 35.1367C43.9219 34.4688 44.1699 33.9668 44.666 33.6309C45.166 33.2949 45.9199 33.1094 46.9277 33.0742L48.0527 33.0332V32.6934C48.0527 32.2441 47.9473 31.9238 47.7363 31.7324C47.5293 31.541 47.2363 31.4453 46.8574 31.4453C46.5332 31.4453 46.2188 31.4922 45.9141 31.5859C45.6094 31.6797 45.3125 31.7949 45.0234 31.9316L44.5781 30.959C44.8945 30.791 45.2539 30.6543 45.6562 30.5488C46.0625 30.4434 46.4844 30.3906 46.9219 30.3906ZM48.0469 33.9004L47.209 33.9297C46.5215 33.9531 46.0391 34.0703 45.7617 34.2812C45.4844 34.4922 45.3457 34.7812 45.3457 35.1484C45.3457 35.4688 45.4414 35.7031 45.6328 35.8516C45.8242 35.9961 46.0762 36.0684 46.3887 36.0684C46.8652 36.0684 47.2598 35.9336 47.5723 35.6641C47.8887 35.3906 48.0469 34.9902 48.0469 34.4629V33.9004ZM55.3594 30.5137H56.877L54.1934 33.6309L57.1055 37H55.5176L52.7227 33.707V37H51.3398V30.5137H52.7227V33.6602L55.3594 30.5137ZM60.7031 30.3906C61.5234 30.3906 62.1426 30.5723 62.5605 30.9355C62.9824 31.2988 63.1934 31.8652 63.1934 32.6348V37H62.2148L61.9512 36.0801H61.9043C61.7207 36.3145 61.5312 36.5078 61.3359 36.6602C61.1406 36.8125 60.9141 36.9258 60.6562 37C60.4023 37.0781 60.0918 37.1172 59.7246 37.1172C59.3379 37.1172 58.9922 37.0469 58.6875 36.9062C58.3828 36.7617 58.1426 36.543 57.9668 36.25C57.791 35.957 57.7031 35.5859 57.7031 35.1367C57.7031 34.4688 57.9512 33.9668 58.4473 33.6309C58.9473 33.2949 59.7012 33.1094 60.709 33.0742L61.834 33.0332V32.6934C61.834 32.2441 61.7285 31.9238 61.5176 31.7324C61.3105 31.541 61.0176 31.4453 60.6387 31.4453C60.3145 31.4453 60 31.4922 59.6953 31.5859C59.3906 31.6797 59.0938 31.7949 58.8047 31.9316L58.3594 30.959C58.6758 30.791 59.0352 30.6543 59.4375 30.5488C59.8438 30.4434 60.2656 30.3906 60.7031 30.3906ZM61.8281 33.9004L60.9902 33.9297C60.3027 33.9531 59.8203 34.0703 59.543 34.2812C59.2656 34.4922 59.127 34.7812 59.127 35.1484C59.127 35.4688 59.2227 35.7031 59.4141 35.8516C59.6055 35.9961 59.8574 36.0684 60.1699 36.0684C60.6465 36.0684 61.041 35.9336 61.3535 35.6641C61.6699 35.3906 61.8281 34.9902 61.8281 34.4629V33.9004ZM67.1367 30.3906C67.6133 30.3906 68.041 30.4551 68.4199 30.584C68.8027 30.709 69.1055 30.8984 69.3281 31.1523C69.5508 31.4062 69.6621 31.7227 69.6621 32.1016C69.6621 32.4922 69.5488 32.8047 69.3223 33.0391C69.0996 33.2695 68.7969 33.4355 68.4141 33.5371V33.5898C68.6836 33.6562 68.9277 33.752 69.1465 33.877C69.3652 33.998 69.5391 34.1621 69.668 34.3691C69.8008 34.5723 69.8672 34.834 69.8672 35.1543C69.8672 35.5176 69.7598 35.8477 69.5449 36.1445C69.334 36.4414 69.0098 36.6777 68.5723 36.8535C68.1348 37.0293 67.5781 37.1172 66.9023 37.1172C66.5781 37.1172 66.2695 37.0996 65.9766 37.0645C65.6875 37.0332 65.4238 36.9883 65.1855 36.9297C64.9473 36.8672 64.7402 36.793 64.5645 36.707V35.5234C64.834 35.6523 65.1602 35.7695 65.543 35.875C65.9258 35.9766 66.3359 36.0273 66.7734 36.0273C67.0977 36.0273 67.3906 35.998 67.6523 35.9395C67.918 35.877 68.127 35.7754 68.2793 35.6348C68.4355 35.4941 68.5137 35.3066 68.5137 35.0723C68.5137 34.8574 68.4453 34.6797 68.3086 34.5391C68.1719 34.3984 67.9668 34.2949 67.6934 34.2285C67.4199 34.1582 67.0742 34.123 66.6562 34.123H65.8828V33.1094H66.5625C67.1367 33.1094 67.5859 33.0469 67.9102 32.9219C68.2383 32.793 68.4023 32.5703 68.4023 32.2539C68.4023 31.9883 68.2871 31.7891 68.0566 31.6562C67.8262 31.5234 67.4727 31.457 66.9961 31.457C66.668 31.457 66.3438 31.4941 66.0234 31.5684C65.7031 31.6387 65.3828 31.7402 65.0625 31.873L64.6289 30.8594C64.9844 30.7148 65.3652 30.6016 65.7715 30.5195C66.1777 30.4336 66.6328 30.3906 67.1367 30.3906ZM73.8984 30.3906C74.7188 30.3906 75.3379 30.5723 75.7559 30.9355C76.1777 31.2988 76.3887 31.8652 76.3887 32.6348V37H75.4102L75.1465 36.0801H75.0996C74.916 36.3145 74.7266 36.5078 74.5312 36.6602C74.3359 36.8125 74.1094 36.9258 73.8516 37C73.5977 37.0781 73.2871 37.1172 72.9199 37.1172C72.5332 37.1172 72.1875 37.0469 71.8828 36.9062C71.5781 36.7617 71.3379 36.543 71.1621 36.25C70.9863 35.957 70.8984 35.5859 70.8984 35.1367C70.8984 34.4688 71.1465 33.9668 71.6426 33.6309C72.1426 33.2949 72.8965 33.1094 73.9043 33.0742L75.0293 33.0332V32.6934C75.0293 32.2441 74.9238 31.9238 74.7129 31.7324C74.5059 31.541 74.2129 31.4453 73.834 31.4453C73.5098 31.4453 73.1953 31.4922 72.8906 31.5859C72.5859 31.6797 72.2891 31.7949 72 31.9316L71.5547 30.959C71.8711 30.791 72.2305 30.6543 72.6328 30.5488C73.0391 30.4434 73.4609 30.3906 73.8984 30.3906ZM75.0234 33.9004L74.1855 33.9297C73.498 33.9531 73.0156 34.0703 72.7383 34.2812C72.4609 34.4922 72.3223 34.7812 72.3223 35.1484C72.3223 35.4688 72.418 35.7031 72.6094 35.8516C72.8008 35.9961 73.0527 36.0684 73.3652 36.0684C73.8418 36.0684 74.2363 35.9336 74.5488 35.6641C74.8652 35.3906 75.0234 34.9902 75.0234 34.4629V33.9004ZM83.2148 31.5977H81.082V37H79.7109V31.5977H77.5898V30.5137H83.2148V31.5977ZM85.8516 33.1035H87.4629C88.0723 33.1035 88.5762 33.1738 88.9746 33.3145C89.377 33.4512 89.6777 33.6582 89.877 33.9355C90.0762 34.2129 90.1758 34.5605 90.1758 34.9785C90.1758 35.3887 90.082 35.7461 89.8945 36.0508C89.707 36.3516 89.4141 36.5859 89.0156 36.7539C88.6211 36.918 88.1055 37 87.4688 37H84.4688V30.5137H85.8516V33.1035ZM88.793 35.0137C88.793 34.6895 88.6719 34.4609 88.4297 34.3281C88.1875 34.1914 87.8418 34.123 87.3926 34.123H85.8516V35.9863H87.4043C87.8145 35.9863 88.1484 35.9121 88.4062 35.7637C88.6641 35.6113 88.793 35.3613 88.793 35.0137ZM96.832 30.3906C97.3086 30.3906 97.7363 30.4551 98.1152 30.584C98.498 30.709 98.8008 30.8984 99.0234 31.1523C99.2461 31.4062 99.3574 31.7227 99.3574 32.1016C99.3574 32.4922 99.2441 32.8047 99.0176 33.0391C98.7949 33.2695 98.4922 33.4355 98.1094 33.5371V33.5898C98.3789 33.6562 98.623 33.752 98.8418 33.877C99.0605 33.998 99.2344 34.1621 99.3633 34.3691C99.4961 34.5723 99.5625 34.834 99.5625 35.1543C99.5625 35.5176 99.4551 35.8477 99.2402 36.1445C99.0293 36.4414 98.7051 36.6777 98.2676 36.8535C97.8301 37.0293 97.2734 37.1172 96.5977 37.1172C96.2734 37.1172 95.9648 37.0996 95.6719 37.0645C95.3828 37.0332 95.1191 36.9883 94.8809 36.9297C94.6426 36.8672 94.4355 36.793 94.2598 36.707V35.5234C94.5293 35.6523 94.8555 35.7695 95.2383 35.875C95.6211 35.9766 96.0312 36.0273 96.4688 36.0273C96.793 36.0273 97.0859 35.998 97.3477 35.9395C97.6133 35.877 97.8223 35.7754 97.9746 35.6348C98.1309 35.4941 98.209 35.3066 98.209 35.0723C98.209 34.8574 98.1406 34.6797 98.0039 34.5391C97.8672 34.3984 97.6621 34.2949 97.3887 34.2285C97.1152 34.1582 96.7695 34.123 96.3516 34.123H95.5781V33.1094H96.2578C96.832 33.1094 97.2812 33.0469 97.6055 32.9219C97.9336 32.793 98.0977 32.5703 98.0977 32.2539C98.0977 31.9883 97.9824 31.7891 97.752 31.6562C97.5215 31.5234 97.168 31.457 96.6914 31.457C96.3633 31.457 96.0391 31.4941 95.7188 31.5684C95.3984 31.6387 95.0781 31.7402 94.7578 31.873L94.3242 30.8594C94.6797 30.7148 95.0605 30.6016 95.4668 30.5195C95.873 30.4336 96.3281 30.3906 96.832 30.3906ZM106.506 32.1777C106.506 32.5527 106.391 32.8594 106.16 33.0977C105.934 33.332 105.621 33.4863 105.223 33.5605V33.6074C105.648 33.6621 106.004 33.8125 106.289 34.0586C106.574 34.3047 106.717 34.6465 106.717 35.084C106.717 35.4551 106.623 35.7852 106.436 36.0742C106.252 36.3594 105.959 36.5859 105.557 36.7539C105.158 36.918 104.637 37 103.992 37H101.051V30.5137H103.98C104.465 30.5137 104.896 30.5664 105.275 30.6719C105.658 30.7773 105.959 30.9512 106.178 31.1934C106.396 31.4355 106.506 31.7637 106.506 32.1777ZM105.281 35.0371C105.281 34.7168 105.158 34.4863 104.912 34.3457C104.67 34.2051 104.314 34.1348 103.846 34.1348H102.434V35.9863H103.875C104.312 35.9863 104.656 35.9141 104.906 35.7695C105.156 35.6211 105.281 35.377 105.281 35.0371ZM105.105 32.3008C105.105 32.0469 105.01 31.8594 104.818 31.7383C104.627 31.6133 104.326 31.5508 103.916 31.5508H102.434V33.1211H103.729C104.182 33.1211 104.523 33.0566 104.754 32.9277C104.988 32.7949 105.105 32.5859 105.105 32.3008ZM114.012 33.7422C114.012 34.2812 113.941 34.7598 113.801 35.1777C113.66 35.5957 113.455 35.9492 113.186 36.2383C112.916 36.5234 112.592 36.7422 112.213 36.8945C111.834 37.043 111.406 37.1172 110.93 37.1172C110.484 37.1172 110.076 37.043 109.705 36.8945C109.334 36.7422 109.012 36.5234 108.738 36.2383C108.469 35.9492 108.26 35.5957 108.111 35.1777C107.963 34.7598 107.889 34.2812 107.889 33.7422C107.889 33.0273 108.012 32.4219 108.258 31.9258C108.508 31.4258 108.863 31.0449 109.324 30.7832C109.785 30.5215 110.334 30.3906 110.971 30.3906C111.568 30.3906 112.096 30.5215 112.553 30.7832C113.01 31.0449 113.367 31.4258 113.625 31.9258C113.883 32.4258 114.012 33.0312 114.012 33.7422ZM109.307 33.7422C109.307 34.2148 109.363 34.6191 109.477 34.9551C109.594 35.291 109.773 35.5488 110.016 35.7285C110.258 35.9043 110.57 35.9922 110.953 35.9922C111.336 35.9922 111.648 35.9043 111.891 35.7285C112.133 35.5488 112.311 35.291 112.424 34.9551C112.537 34.6191 112.594 34.2148 112.594 33.7422C112.594 33.2695 112.537 32.8691 112.424 32.541C112.311 32.209 112.133 31.957 111.891 31.7852C111.648 31.6094 111.334 31.5215 110.947 31.5215C110.377 31.5215 109.961 31.7129 109.699 32.0957C109.438 32.4785 109.307 33.0273 109.307 33.7422ZM116.977 30.5137V33.1211H120.012V30.5137H121.395V37H120.012V34.1992H116.977V37H115.594V30.5137H116.977ZM129.105 33.7422C129.105 34.2812 129.035 34.7598 128.895 35.1777C128.754 35.5957 128.549 35.9492 128.279 36.2383C128.01 36.5234 127.686 36.7422 127.307 36.8945C126.928 37.043 126.5 37.1172 126.023 37.1172C125.578 37.1172 125.17 37.043 124.799 36.8945C124.428 36.7422 124.105 36.5234 123.832 36.2383C123.562 35.9492 123.354 35.5957 123.205 35.1777C123.057 34.7598 122.982 34.2812 122.982 33.7422C122.982 33.0273 123.105 32.4219 123.352 31.9258C123.602 31.4258 123.957 31.0449 124.418 30.7832C124.879 30.5215 125.428 30.3906 126.064 30.3906C126.662 30.3906 127.189 30.5215 127.646 30.7832C128.104 31.0449 128.461 31.4258 128.719 31.9258C128.977 32.4258 129.105 33.0312 129.105 33.7422ZM124.4 33.7422C124.4 34.2148 124.457 34.6191 124.57 34.9551C124.688 35.291 124.867 35.5488 125.109 35.7285C125.352 35.9043 125.664 35.9922 126.047 35.9922C126.43 35.9922 126.742 35.9043 126.984 35.7285C127.227 35.5488 127.404 35.291 127.518 34.9551C127.631 34.6191 127.688 34.2148 127.688 33.7422C127.688 33.2695 127.631 32.8691 127.518 32.541C127.404 32.209 127.227 31.957 126.984 31.7852C126.742 31.6094 126.428 31.5215 126.041 31.5215C125.471 31.5215 125.055 31.7129 124.793 32.0957C124.531 32.4785 124.4 33.0273 124.4 33.7422ZM134.707 30.5137H136.225L133.541 33.6309L136.453 37H134.865L132.07 33.707V37H130.688V30.5137H132.07V33.6602L134.707 30.5137Z" fill="#1B2B49"/>
<line x1="36.5" y1="40.5" x2="136.5" y2="40.5" stroke="#1B2B49" stroke-linecap="round" stroke-dasharray="2 2"/>
</svg>
