<svg width="20" height="25" viewBox="0 0 20 25" fill="none" xmlns="http://www.w3.org/2000/svg">
<path d="M9.46914 24.3089C9.77783 24.5637 10.2237 24.5637 10.5324 24.3089C15.5106 20.1735 17.7302 16.3713 18.6954 14.088C18.9747 13.4853 19.1903 12.8483 19.3422 12.1868C19.3863 11.9908 19.4059 11.888 19.4059 11.888C19.5186 11.3 19.5774 10.6924 19.5774 10.0701C19.5725 4.67547 15.099 0.319563 9.65533 0.505755C4.88784 0.672348 0.928807 4.39128 0.468227 9.13917C0.375131 10.0897 0.429028 11.0109 0.595621 11.888C0.595621 11.888 0.61032 11.9908 0.659318 12.1868C0.806312 12.8483 1.0268 13.4853 1.30609 14.088C2.27135 16.3664 4.48605 20.1735 9.46914 24.3089ZM4.17247 10.1877C4.17247 6.97347 6.77915 4.36188 9.99832 4.36188C13.2175 4.36188 15.8242 6.96857 15.8242 10.1877C15.8242 13.4069 13.2126 16.0087 9.99832 16.0087C6.78405 16.0087 4.17247 13.402 4.17247 10.1877Z" fill="#1B2B49"/>
</svg>
