<svg width="20" height="21" viewBox="0 0 20 21" fill="none" xmlns="http://www.w3.org/2000/svg">
<path d="M10.0034 5.36443C7.16757 5.36443 4.87177 7.66272 4.87177 10.496C4.87177 13.3318 7.17007 15.6276 10.0034 15.6276C12.8391 15.6276 15.1349 13.3293 15.1349 10.496C15.1349 7.66022 12.8366 5.36443 10.0034 5.36443ZM10.0034 13.8268C8.16255 13.8268 6.67258 12.336 6.67258 10.496C6.67258 8.65604 8.16338 7.16523 10.0034 7.16523C11.8433 7.16523 13.3341 8.65604 13.3341 10.496C13.335 12.336 11.8442 13.8268 10.0034 13.8268Z" fill="#1B2B49"/>
<path d="M14.1233 0.562821C12.2833 0.476989 7.72589 0.481156 5.88425 0.562821C4.26595 0.638653 2.83847 1.02948 1.68766 2.18029C-0.23564 4.10359 0.0101892 6.69521 0.0101892 10.496C0.0101892 14.3859 -0.206474 16.9175 1.68766 18.8117C3.61846 20.7416 6.24758 20.4891 10.0033 20.4891C13.8566 20.4891 15.1866 20.4916 16.5491 19.9641C18.4015 19.245 19.7998 17.5892 19.9365 14.6151C20.0232 12.7743 20.0182 8.21769 19.9365 6.37605C19.7715 2.86528 17.8874 0.736151 14.1233 0.562821ZM17.0357 17.5392C15.7749 18.8 14.0258 18.6875 9.97918 18.6875C5.81259 18.6875 4.14178 18.7492 2.92264 17.5267C1.5185 16.1292 1.77266 13.8851 1.77266 10.4826C1.77266 5.87856 1.30017 2.56279 5.92092 2.32612C6.98257 2.28862 7.29506 2.27612 9.96751 2.27612L10.005 2.30112C14.4458 2.30112 17.9299 1.83613 18.139 6.45605C18.1865 7.5102 18.1974 7.82686 18.1974 10.4951C18.1965 14.6134 18.2749 16.2942 17.0357 17.5392Z" fill="#1B2B49"/>
<path d="M15.3383 6.361C16.0005 6.361 16.5374 5.82412 16.5374 5.16186C16.5374 4.49959 16.0005 3.96271 15.3383 3.96271C14.676 3.96271 14.1391 4.49959 14.1391 5.16186C14.1391 5.82412 14.676 6.361 15.3383 6.361Z" fill="#1B2B49"/>
</svg>
