<svg width="236" height="40" viewBox="0 0 236 40" fill="none" xmlns="http://www.w3.org/2000/svg">
<path d="M40.6675 0H11.1678C11.0314 0 10.9169 0.102775 10.9024 0.238295L9.69317 11.5298C9.68346 11.6205 9.76562 11.6939 9.8547 11.6742L40.4584 4.90342C40.5806 4.87639 40.6675 4.76813 40.6675 4.64306V0Z" fill="#1B2B49"/>
<path d="M8.60592 0.297533C8.6244 0.139097 8.50046 0 8.34082 0H0.633789V13.3821C0.633789 13.5526 0.791758 13.6793 0.958384 13.6425L6.9327 12.3207C7.0992 12.2839 7.22406 12.1457 7.2438 11.9765L8.60592 0.297533Z" fill="#9B9B9B"/>
<path d="M0.633789 28.0268C0.633789 28.1703 0.747555 28.2881 0.891158 28.2933L21.7257 29.0367C21.9033 29.043 22.0374 28.8774 21.994 28.7052L17.8542 12.2486C17.8191 12.1091 17.6796 12.0225 17.5389 12.053L0.844167 15.6671C0.721393 15.6937 0.633789 15.8022 0.633789 15.9277V28.0268Z" fill="#1B2B49"/>
<path d="M24.6039 28.9504C24.6338 29.0643 24.7348 29.1451 24.8526 29.1493L40.3915 29.7038C40.5425 29.7091 40.6679 29.5883 40.6679 29.4373V7.18865C40.6679 7.01813 40.5099 6.89142 40.3433 6.92829L20.2757 11.368C20.1278 11.4007 20.0368 11.5496 20.0752 11.696L24.6039 28.9504Z" fill="#B7B7B7"/>
<path d="M27.3411 31.6353C27.4118 31.5504 27.3546 31.4214 27.2442 31.4167L0.912029 30.2971C0.760311 30.2907 0.633789 30.4118 0.633789 30.5635V39.9996H20.1774C20.2962 39.9996 20.4088 39.9468 20.4849 39.8556L27.3411 31.6353Z" fill="#595959"/>
<path d="M40.6676 32.2445C40.6676 32.101 40.5538 31.9832 40.4102 31.978L30.8521 31.637C30.7302 31.6326 30.6128 31.6841 30.5335 31.7768L23.6983 39.7672C23.6243 39.8537 23.6858 39.9872 23.7997 39.9872L40.6676 39.9872V32.2445Z" fill="#1B2B49"/>
<path d="M60.1503 32.1613C58.5667 32.1613 57.3212 31.8502 56.4138 31.228C55.5241 30.6058 54.9014 29.7613 54.5455 28.6946C54.1896 27.6102 54.0117 26.3657 54.0117 24.9613V17.2546C54.0117 15.7791 54.1896 14.4991 54.5455 13.4146C54.9014 12.3302 55.5241 11.4946 56.4138 10.908C57.3212 10.3213 58.5667 10.028 60.1503 10.028C61.6449 10.028 62.8103 10.2857 63.6466 10.8013C64.5006 11.2991 65.1056 12.0191 65.4615 12.9613C65.8173 13.9035 65.9953 14.9969 65.9953 16.2413V18.0546H62.2054V16.188C62.2054 15.5835 62.1698 15.0324 62.0986 14.5346C62.0452 14.0369 61.8762 13.6457 61.5915 13.3613C61.3246 13.0591 60.8531 12.908 60.177 12.908C59.5008 12.908 59.0026 13.068 58.6824 13.388C58.3799 13.6902 58.1842 14.108 58.0952 14.6413C58.0062 15.1569 57.9617 15.7435 57.9617 16.4013V25.788C57.9617 26.5702 58.024 27.2191 58.1486 27.7346C58.2731 28.2324 58.4955 28.6146 58.8158 28.8813C59.1539 29.1302 59.6076 29.2546 60.177 29.2546C60.8353 29.2546 61.2979 29.1035 61.5648 28.8013C61.8495 28.4813 62.0274 28.0635 62.0986 27.548C62.1698 27.0324 62.2054 26.4546 62.2054 25.8146V23.868H65.9953V25.6013C65.9953 26.8813 65.8262 28.0191 65.4882 29.0146C65.1501 29.9924 64.554 30.7658 63.7 31.3346C62.8637 31.8857 61.6805 32.1613 60.1503 32.1613Z" fill="#1B2B49"/>
<path d="M71.4409 31.868V13.1746H67.998V10.268H78.7805V13.1746H75.391V31.868H71.4409Z" fill="#1B2B49"/>
<path d="M81.281 31.868V10.268H87.633C88.9319 10.268 89.9817 10.508 90.7824 10.988C91.6009 11.468 92.1969 12.1702 92.5706 13.0946C92.962 14.0013 93.1577 15.1035 93.1577 16.4013C93.1577 17.8057 92.9175 18.9435 92.4371 19.8146C91.9567 20.668 91.2806 21.2902 90.4087 21.6813C89.5547 22.0724 88.5405 22.268 87.3661 22.268H85.231V31.868H81.281ZM85.231 19.4946H86.7256C87.4373 19.4946 87.9889 19.3969 88.3803 19.2013C88.7896 18.988 89.0654 18.6591 89.2077 18.2146C89.3678 17.7524 89.4479 17.1391 89.4479 16.3746C89.4479 15.5924 89.3856 14.9613 89.2611 14.4813C89.1543 13.9835 88.9052 13.6191 88.5138 13.388C88.1401 13.1569 87.5441 13.0413 86.7256 13.0413H85.231V19.4946Z" fill="#1B2B49"/>
<path d="M101.761 32.1613C100.231 32.1613 99.0119 31.8769 98.1045 31.308C97.197 30.7391 96.5476 29.9213 96.1561 28.8546C95.7647 27.788 95.569 26.5257 95.569 25.068V16.988C95.569 15.5302 95.7647 14.2857 96.1561 13.2546C96.5476 12.2057 97.197 11.4057 98.1045 10.8546C99.0119 10.3035 100.231 10.028 101.761 10.028C103.327 10.028 104.554 10.3035 105.444 10.8546C106.351 11.4057 107.001 12.2057 107.392 13.2546C107.802 14.2857 108.006 15.5302 108.006 16.988V25.0946C108.006 26.5346 107.802 27.788 107.392 28.8546C107.001 29.9035 106.351 30.7213 105.444 31.308C104.554 31.8769 103.327 32.1613 101.761 32.1613ZM101.761 29.2546C102.419 29.2546 102.9 29.1124 103.202 28.828C103.522 28.5435 103.736 28.1524 103.843 27.6546C103.949 27.1569 104.003 26.6146 104.003 26.028V16.0813C104.003 15.4769 103.949 14.9346 103.843 14.4546C103.736 13.9746 103.522 13.6013 103.202 13.3346C102.9 13.0502 102.419 12.908 101.761 12.908C101.138 12.908 100.667 13.0502 100.346 13.3346C100.026 13.6013 99.8126 13.9746 99.7058 14.4546C99.5991 14.9346 99.5457 15.4769 99.5457 16.0813V26.028C99.5457 26.6146 99.5902 27.1569 99.6791 27.6546C99.7859 28.1524 99.9994 28.5435 100.32 28.828C100.64 29.1124 101.12 29.2546 101.761 29.2546Z" fill="#1B2B49"/>
<path d="M111.515 31.868V10.268H114.745V23.8946L120.67 10.268H123.312V31.868H120.056V18.028L114.104 31.868H111.515ZM117.734 8.5613C116.453 8.5613 115.483 8.21464 114.825 7.5213C114.184 6.81019 113.864 5.85908 113.864 4.66797H115.946C115.946 5.30797 116.079 5.79686 116.346 6.13464C116.613 6.47241 117.076 6.6413 117.734 6.6413C118.374 6.6413 118.828 6.47241 119.095 6.13464C119.362 5.77908 119.495 5.29019 119.495 4.66797H121.577C121.577 5.85908 121.248 6.81019 120.59 7.5213C119.949 8.21464 118.997 8.5613 117.734 8.5613Z" fill="#1B2B49"/>
<path d="M132.129 31.9746C130.848 31.9746 129.834 31.7258 129.086 31.228C128.339 30.7302 127.805 30.0191 127.485 29.0946C127.165 28.1702 127.005 27.0858 127.005 25.8413V24.8813H128.926V25.7613C128.926 26.6857 128.997 27.4946 129.14 28.188C129.3 28.8813 129.611 29.4146 130.074 29.788C130.537 30.1613 131.222 30.348 132.129 30.348C133.108 30.348 133.837 30.1435 134.318 29.7346C134.798 29.3258 135.118 28.7569 135.278 28.028C135.456 27.2991 135.545 26.4546 135.545 25.4946V21.3613H130.928V19.9746H135.545V16.3213C135.545 15.2546 135.439 14.3657 135.225 13.6546C135.029 12.9257 134.682 12.3924 134.184 12.0546C133.686 11.6991 133.001 11.5213 132.129 11.5213C131.222 11.5213 130.537 11.7169 130.074 12.108C129.629 12.4991 129.327 13.0413 129.167 13.7346C129.006 14.428 128.926 15.2457 128.926 16.188V17.228H127.005V16.3213C127.005 15.0591 127.147 13.948 127.432 12.988C127.734 12.0102 128.259 11.2457 129.006 10.6946C129.754 10.1435 130.795 9.86797 132.129 9.86797C133.588 9.86797 134.709 10.1791 135.492 10.8013C136.293 11.4057 136.844 12.2146 137.147 13.228C137.449 14.2413 137.6 15.3791 137.6 16.6413V25.2013C137.6 26.5346 137.44 27.7169 137.12 28.748C136.817 29.7613 136.266 30.5524 135.465 31.1213C134.682 31.6902 133.57 31.9746 132.129 31.9746Z" fill="#1B2B49"/>
<path d="M141.44 31.868V10.268H143.495V20.188H145.016L149.447 10.268H151.502L146.804 20.668L152.222 31.868H150.167L145.043 21.2813H143.495V31.868H141.44Z" fill="#1B2B49"/>
<path d="M160.052 32.1346C158.611 32.1346 157.481 31.8591 156.663 31.308C155.862 30.7391 155.293 29.9569 154.955 28.9613C154.634 27.948 154.474 26.7924 154.474 25.4946V16.5346C154.474 15.2191 154.643 14.0813 154.981 13.1213C155.337 12.1435 155.916 11.388 156.716 10.8546C157.535 10.3213 158.647 10.0546 160.052 10.0546C161.44 10.0546 162.534 10.3213 163.335 10.8546C164.154 11.388 164.732 12.1435 165.07 13.1213C165.408 14.0813 165.577 15.2191 165.577 16.5346V25.5213C165.577 26.8191 165.408 27.9657 165.07 28.9613C164.75 29.9391 164.189 30.7124 163.389 31.2813C162.588 31.8502 161.476 32.1346 160.052 32.1346ZM160.052 30.508C160.995 30.508 161.716 30.3213 162.214 29.948C162.712 29.5569 163.05 29.0235 163.228 28.348C163.424 27.6546 163.522 26.8546 163.522 25.948V16.1613C163.522 15.2546 163.424 14.4635 163.228 13.788C163.05 13.1124 162.712 12.5969 162.214 12.2413C161.716 11.868 160.995 11.6813 160.052 11.6813C159.092 11.6813 158.353 11.868 157.837 12.2413C157.339 12.5969 156.992 13.1124 156.796 13.788C156.618 14.4635 156.529 15.2546 156.529 16.1613V25.948C156.529 26.8546 156.618 27.6546 156.796 28.348C156.992 29.0235 157.339 29.5569 157.837 29.948C158.353 30.3213 159.092 30.508 160.052 30.508Z" fill="#1B2B49"/>
<path d="M168.016 31.8946V30.348C168.532 30.3302 168.968 30.2769 169.324 30.188C169.68 30.0813 169.973 29.8591 170.205 29.5213C170.454 29.1835 170.658 28.6324 170.819 27.868C170.997 27.1035 171.157 26.0546 171.299 24.7213C171.459 23.388 171.619 21.6813 171.779 19.6013L172.42 10.268H180.827V31.868H178.772V11.8146H174.235L173.728 19.6013C173.568 21.6457 173.407 23.388 173.247 24.828C173.105 26.2502 172.918 27.4324 172.687 28.3746C172.456 29.2991 172.144 30.028 171.753 30.5613C171.379 31.0769 170.89 31.4324 170.285 31.628C169.68 31.8235 168.924 31.9124 168.016 31.8946Z" fill="#1B2B49"/>
<path d="M190.259 32.1346C188.818 32.1346 187.688 31.8591 186.87 31.308C186.069 30.7391 185.5 29.9569 185.162 28.9613C184.841 27.948 184.681 26.7924 184.681 25.4946V16.5346C184.681 15.2191 184.85 14.0813 185.188 13.1213C185.544 12.1435 186.122 11.388 186.923 10.8546C187.742 10.3213 188.854 10.0546 190.259 10.0546C191.647 10.0546 192.741 10.3213 193.542 10.8546C194.361 11.388 194.939 12.1435 195.277 13.1213C195.615 14.0813 195.784 15.2191 195.784 16.5346V25.5213C195.784 26.8191 195.615 27.9657 195.277 28.9613C194.957 29.9391 194.396 30.7124 193.596 31.2813C192.795 31.8502 191.683 32.1346 190.259 32.1346ZM190.259 30.508C191.202 30.508 191.923 30.3213 192.421 29.948C192.919 29.5569 193.257 29.0235 193.435 28.348C193.631 27.6546 193.729 26.8546 193.729 25.948V16.1613C193.729 15.2546 193.631 14.4635 193.435 13.788C193.257 13.1124 192.919 12.5969 192.421 12.2413C191.923 11.868 191.202 11.6813 190.259 11.6813C189.299 11.6813 188.56 11.868 188.044 12.2413C187.546 12.5969 187.199 13.1124 187.003 13.788C186.825 14.4635 186.736 15.2546 186.736 16.1613V25.948C186.736 26.8546 186.825 27.6546 187.003 28.348C187.199 29.0235 187.546 29.5569 188.044 29.948C188.56 30.3213 189.299 30.508 190.259 30.508Z" fill="#1B2B49"/>
<path d="M199.691 31.868V10.268H207.351V11.8413H201.719V31.868H199.691Z" fill="#1B2B49"/>
<path d="M210.207 31.868V10.268H212.022V27.388L219.014 10.268H220.589V31.868H218.774V14.668L211.808 31.868H210.207Z" fill="#1B2B49"/>
<path d="M223.506 31.868L227.91 22.0813C226.86 21.6546 226.077 20.9257 225.561 19.8946C225.045 18.8457 224.787 17.5924 224.787 16.1346C224.787 15.0502 224.965 14.0724 225.321 13.2013C225.694 12.3124 226.317 11.6013 227.189 11.068C228.079 10.5346 229.28 10.268 230.792 10.268H235.383V31.868H233.328V22.6146H230.605C230.499 22.6146 230.338 22.6146 230.125 22.6146C229.929 22.5969 229.778 22.588 229.671 22.588L225.801 31.868H223.506ZM230.952 21.1213H233.328V11.788H230.872C229.556 11.788 228.541 12.1257 227.83 12.8013C227.118 13.4591 226.762 14.5613 226.762 16.108C226.762 17.7791 227.073 19.0324 227.696 19.868C228.337 20.7035 229.422 21.1213 230.952 21.1213Z" fill="#1B2B49"/>
</svg>
