<svg width="236" height="40" viewBox="0 0 236 40" fill="none" xmlns="http://www.w3.org/2000/svg">
<path d="M41.0679 0H11.5682C11.4318 0 11.3173 0.102775 11.3028 0.238295L10.0936 11.5298C10.0838 11.6205 10.166 11.6939 10.2551 11.6742L40.8587 4.90342C40.981 4.87639 41.0679 4.76813 41.0679 4.64306V0Z" fill="#FEFFFF"/>
<path d="M9.00631 0.297533C9.02479 0.139097 8.90085 0 8.74121 0H1.03418V13.3821C1.03418 13.5526 1.19215 13.6793 1.35877 13.6425L7.33309 12.3207C7.49959 12.2839 7.62445 12.1457 7.64419 11.9765L9.00631 0.297533Z" fill="#FEFFFF"/>
<path d="M1.03418 28.0287C1.03418 28.1723 1.14795 28.2901 1.29155 28.2952L22.1261 29.0386C22.3037 29.045 22.4378 28.8794 22.3944 28.7071L18.2546 12.2505C18.2195 12.111 18.08 12.0245 17.9392 12.0549L1.24456 15.6691C1.12178 15.6956 1.03418 15.8042 1.03418 15.9297V28.0287Z" fill="#FEFFFF"/>
<path d="M25.0043 28.9504C25.0342 29.0643 25.1352 29.1451 25.2529 29.1493L40.7919 29.7038C40.9429 29.7091 41.0683 29.5883 41.0683 29.4373V7.18865C41.0683 7.01813 40.9103 6.89142 40.7437 6.92829L20.6761 11.368C20.5282 11.4007 20.4372 11.5496 20.4756 11.696L25.0043 28.9504Z" fill="#FEFFFF"/>
<path d="M27.7415 31.6353C27.8122 31.5504 27.755 31.4214 27.6446 31.4167L1.31242 30.2971C1.1607 30.2907 1.03418 30.4118 1.03418 30.5635V39.9996H20.5778C20.6966 39.9996 20.8092 39.9468 20.8853 39.8556L27.7415 31.6353Z" fill="#FEFFFF"/>
<path d="M41.068 32.2465C41.068 32.1029 40.9542 31.9851 40.8106 31.98L31.2525 31.6389C31.1305 31.6346 31.0132 31.6861 30.9339 31.7788L24.0987 39.7692C24.0247 39.8557 24.0862 39.9891 24.2001 39.9891L41.068 39.9892V32.2465Z" fill="#FEFFFF"/>
<path d="M60.5507 32.1594C58.9671 32.1594 57.7216 31.8482 56.8142 31.226C55.9245 30.6038 55.3018 29.7594 54.9459 28.6927C54.59 27.6082 54.4121 26.3638 54.4121 24.9594V17.2527C54.4121 15.7771 54.59 14.4971 54.9459 13.4127C55.3018 12.3282 55.9245 11.4927 56.8142 10.906C57.7216 10.3194 58.9671 10.026 60.5507 10.026C62.0453 10.026 63.2107 10.2838 64.047 10.7994C64.901 11.2971 65.506 12.0171 65.8619 12.9594C66.2177 13.9016 66.3956 14.9949 66.3956 16.2394V18.0527H62.6057V16.186C62.6057 15.5816 62.5702 15.0305 62.499 14.5327C62.4456 14.0349 62.2766 13.6438 61.9919 13.3594C61.725 13.0571 61.2535 12.906 60.5774 12.906C59.9012 12.906 59.403 13.066 59.0828 13.386C58.7803 13.6882 58.5845 14.106 58.4956 14.6394C58.4066 15.1549 58.3621 15.7416 58.3621 16.3994V25.786C58.3621 26.5682 58.4244 27.2171 58.549 27.7327C58.6735 28.2305 58.8959 28.6127 59.2162 28.8794C59.5543 29.1282 60.008 29.2527 60.5774 29.2527C61.2357 29.2527 61.6983 29.1016 61.9652 28.7994C62.2499 28.4794 62.4278 28.0616 62.499 27.546C62.5702 27.0305 62.6057 26.4527 62.6057 25.8127V23.866H66.3956V25.5994C66.3956 26.8794 66.2266 28.0171 65.8885 29.0127C65.5505 29.9905 64.9544 30.7638 64.1004 31.3327C63.2641 31.8838 62.0809 32.1594 60.5507 32.1594Z" fill="#FEFFFF"/>
<path d="M71.8413 31.866V13.1727H68.3984V10.266H79.1809V13.1727H75.7913V31.866H71.8413Z" fill="#FEFFFF"/>
<path d="M81.6814 31.866V10.266H88.0334C89.3323 10.266 90.3821 10.506 91.1828 10.986C92.0013 11.466 92.5973 12.1682 92.971 13.0927C93.3624 13.9994 93.5581 15.1016 93.5581 16.3994C93.5581 17.8038 93.3179 18.9416 92.8375 19.8127C92.3571 20.666 91.681 21.2882 90.8091 21.6794C89.9551 22.0705 88.9409 22.266 87.7665 22.266H85.6314V31.866H81.6814ZM85.6314 19.4927H87.126C87.8377 19.4927 88.3893 19.3949 88.7807 19.1994C89.19 18.986 89.4658 18.6571 89.6081 18.2127C89.7682 17.7505 89.8483 17.1371 89.8483 16.3727C89.8483 15.5905 89.786 14.9594 89.6615 14.4794C89.5547 13.9816 89.3056 13.6171 88.9142 13.386C88.5405 13.1549 87.9445 13.0394 87.126 13.0394H85.6314V19.4927Z" fill="#FEFFFF"/>
<path d="M102.161 32.1594C100.631 32.1594 99.4123 31.8749 98.5048 31.306C97.5974 30.7371 96.948 29.9194 96.5565 28.8527C96.1651 27.786 95.9694 26.5238 95.9694 25.066V16.986C95.9694 15.5282 96.1651 14.2838 96.5565 13.2527C96.948 12.2038 97.5974 11.4038 98.5048 10.8527C99.4123 10.3016 100.631 10.026 102.161 10.026C103.727 10.026 104.955 10.3016 105.844 10.8527C106.752 11.4038 107.401 12.2038 107.793 13.2527C108.202 14.2838 108.407 15.5282 108.407 16.986V25.0927C108.407 26.5327 108.202 27.786 107.793 28.8527C107.401 29.9016 106.752 30.7194 105.844 31.306C104.955 31.8749 103.727 32.1594 102.161 32.1594ZM102.161 29.2527C102.82 29.2527 103.3 29.1105 103.603 28.826C103.923 28.5416 104.136 28.1505 104.243 27.6527C104.35 27.1549 104.403 26.6127 104.403 26.026V16.0794C104.403 15.4749 104.35 14.9327 104.243 14.4527C104.136 13.9727 103.923 13.5994 103.603 13.3327C103.3 13.0482 102.82 12.906 102.161 12.906C101.539 12.906 101.067 13.0482 100.747 13.3327C100.426 13.5994 100.213 13.9727 100.106 14.4527C99.9994 14.9327 99.9461 15.4749 99.9461 16.0794V26.026C99.9461 26.6127 99.9906 27.1549 100.08 27.6527C100.186 28.1505 100.4 28.5416 100.72 28.826C101.04 29.1105 101.521 29.2527 102.161 29.2527Z" fill="#FEFFFF"/>
<path d="M111.916 31.866V10.266H115.145V23.8927L121.07 10.266H123.712V31.866H120.456V18.026L114.505 31.866H111.916ZM118.134 8.55935C116.853 8.55935 115.883 8.21268 115.225 7.51935C114.585 6.80824 114.264 5.85713 114.264 4.66602H116.346C116.346 5.30602 116.48 5.79491 116.746 6.13268C117.013 6.47046 117.476 6.63935 118.134 6.63935C118.775 6.63935 119.229 6.47046 119.495 6.13268C119.762 5.77713 119.896 5.28824 119.896 4.66602H121.978C121.978 5.85713 121.648 6.80824 120.99 7.51935C120.349 8.21268 119.398 8.55935 118.134 8.55935Z" fill="#FEFFFF"/>
<path d="M132.529 31.9727C131.248 31.9727 130.234 31.7238 129.487 31.226C128.74 30.7282 128.206 30.0171 127.885 29.0927C127.565 28.1682 127.405 27.0838 127.405 25.8394V24.8794H129.327V25.7594C129.327 26.6838 129.398 27.4927 129.54 28.186C129.7 28.8794 130.012 29.4127 130.474 29.786C130.937 30.1594 131.622 30.346 132.529 30.346C133.508 30.346 134.238 30.1416 134.718 29.7327C135.198 29.3238 135.519 28.7549 135.679 28.026C135.857 27.2971 135.946 26.4527 135.946 25.4927V21.3594H131.328V19.9727H135.946V16.3194C135.946 15.2527 135.839 14.3638 135.625 13.6527C135.43 12.9238 135.083 12.3905 134.585 12.0527C134.086 11.6971 133.401 11.5194 132.529 11.5194C131.622 11.5194 130.937 11.7149 130.474 12.106C130.03 12.4971 129.727 13.0394 129.567 13.7327C129.407 14.426 129.327 15.2438 129.327 16.186V17.226H127.405V16.3194C127.405 15.0571 127.547 13.946 127.832 12.986C128.135 12.0082 128.659 11.2438 129.407 10.6927C130.154 10.1416 131.195 9.86602 132.529 9.86602C133.988 9.86602 135.109 10.1771 135.892 10.7994C136.693 11.4038 137.245 12.2127 137.547 13.226C137.85 14.2394 138.001 15.3771 138.001 16.6394V25.1994C138.001 26.5327 137.841 27.7149 137.52 28.746C137.218 29.7594 136.666 30.5505 135.866 31.1194C135.083 31.6882 133.971 31.9727 132.529 31.9727Z" fill="#FEFFFF"/>
<path d="M141.84 31.866V10.266H143.895V20.186H145.417L149.847 10.266H151.902L147.205 20.666L152.623 31.866H150.568L145.443 21.2794H143.895V31.866H141.84Z" fill="#FEFFFF"/>
<path d="M160.453 32.1327C159.012 32.1327 157.882 31.8571 157.063 31.306C156.263 30.7371 155.693 29.9549 155.355 28.9594C155.035 27.946 154.875 26.7905 154.875 25.4927V16.5327C154.875 15.2171 155.044 14.0794 155.382 13.1194C155.738 12.1416 156.316 11.386 157.117 10.8527C157.935 10.3194 159.047 10.0527 160.453 10.0527C161.841 10.0527 162.935 10.3194 163.736 10.8527C164.554 11.386 165.132 12.1416 165.47 13.1194C165.808 14.0794 165.977 15.2171 165.977 16.5327V25.5194C165.977 26.8171 165.808 27.9638 165.47 28.9594C165.15 29.9371 164.59 30.7105 163.789 31.2794C162.988 31.8482 161.876 32.1327 160.453 32.1327ZM160.453 30.506C161.396 30.506 162.116 30.3194 162.615 29.946C163.113 29.5549 163.451 29.0216 163.629 28.346C163.825 27.6527 163.922 26.8527 163.922 25.946V16.1594C163.922 15.2527 163.825 14.4616 163.629 13.786C163.451 13.1105 163.113 12.5949 162.615 12.2394C162.116 11.866 161.396 11.6794 160.453 11.6794C159.492 11.6794 158.754 11.866 158.238 12.2394C157.739 12.5949 157.392 13.1105 157.197 13.786C157.019 14.4616 156.93 15.2527 156.93 16.1594V25.946C156.93 26.8527 157.019 27.6527 157.197 28.346C157.392 29.0216 157.739 29.5549 158.238 29.946C158.754 30.3194 159.492 30.506 160.453 30.506Z" fill="#FEFFFF"/>
<path d="M168.417 31.8927V30.346C168.933 30.3282 169.369 30.2749 169.724 30.186C170.08 30.0794 170.374 29.8571 170.605 29.5194C170.854 29.1816 171.059 28.6305 171.219 27.866C171.397 27.1016 171.557 26.0527 171.699 24.7194C171.86 23.386 172.02 21.6794 172.18 19.5994L172.82 10.266H181.228V31.866H179.172V11.8127H174.635L174.128 19.5994C173.968 21.6438 173.808 23.386 173.648 24.826C173.505 26.2482 173.319 27.4305 173.087 28.3727C172.856 29.2971 172.545 30.026 172.153 30.5594C171.779 31.0749 171.29 31.4305 170.685 31.626C170.08 31.8216 169.324 31.9105 168.417 31.8927Z" fill="#FEFFFF"/>
<path d="M190.66 32.1327C189.219 32.1327 188.089 31.8571 187.27 31.306C186.469 30.7371 185.9 29.9549 185.562 28.9594C185.242 27.946 185.082 26.7905 185.082 25.4927V16.5327C185.082 15.2171 185.251 14.0794 185.589 13.1194C185.945 12.1416 186.523 11.386 187.324 10.8527C188.142 10.3194 189.254 10.0527 190.66 10.0527C192.048 10.0527 193.142 10.3194 193.943 10.8527C194.761 11.386 195.339 12.1416 195.677 13.1194C196.015 14.0794 196.184 15.2171 196.184 16.5327V25.5194C196.184 26.8171 196.015 27.9638 195.677 28.9594C195.357 29.9371 194.797 30.7105 193.996 31.2794C193.195 31.8482 192.083 32.1327 190.66 32.1327ZM190.66 30.506C191.603 30.506 192.323 30.3194 192.822 29.946C193.32 29.5549 193.658 29.0216 193.836 28.346C194.031 27.6527 194.129 26.8527 194.129 25.946V16.1594C194.129 15.2527 194.031 14.4616 193.836 13.786C193.658 13.1105 193.32 12.5949 192.822 12.2394C192.323 11.866 191.603 11.6794 190.66 11.6794C189.699 11.6794 188.961 11.866 188.445 12.2394C187.946 12.5949 187.599 13.1105 187.404 13.786C187.226 14.4616 187.137 15.2527 187.137 16.1594V25.946C187.137 26.8527 187.226 27.6527 187.404 28.346C187.599 29.0216 187.946 29.5549 188.445 29.946C188.961 30.3194 189.699 30.506 190.66 30.506Z" fill="#FEFFFF"/>
<path d="M200.092 31.866V10.266H207.751V11.8394H202.12V31.866H200.092Z" fill="#FEFFFF"/>
<path d="M210.607 31.866V10.266H212.422V27.386L219.415 10.266H220.989V31.866H219.174V14.666L212.208 31.866H210.607Z" fill="#FEFFFF"/>
<path d="M223.906 31.866L228.31 22.0794C227.26 21.6527 226.477 20.9238 225.961 19.8927C225.445 18.8438 225.187 17.5905 225.187 16.1327C225.187 15.0482 225.365 14.0705 225.721 13.1994C226.095 12.3105 226.718 11.5994 227.589 11.066C228.479 10.5327 229.68 10.266 231.193 10.266H235.783V31.866H233.728V22.6127H231.006C230.899 22.6127 230.739 22.6127 230.525 22.6127C230.33 22.5949 230.178 22.586 230.072 22.586L226.202 31.866H223.906ZM231.353 21.1194H233.728V11.786H231.273C229.956 11.786 228.942 12.1238 228.23 12.7994C227.518 13.4571 227.162 14.5594 227.162 16.106C227.162 17.7771 227.474 19.0305 228.097 19.866C228.737 20.7016 229.823 21.1194 231.353 21.1194Z" fill="#FEFFFF"/>
</svg>
