<svg width="14" height="23" viewBox="0 0 14 23" fill="none" xmlns="http://www.w3.org/2000/svg">
<path d="M5.52221 15.9959C3.81673 15.8181 2.27898 15.398 0.962425 14.3683C0.799065 14.2402 0.630406 14.1167 0.481331 13.9736C-0.094921 13.4202 -0.152984 12.7863 0.302995 12.1331C0.693077 11.5742 1.3479 11.4246 2.02853 11.7456C2.16032 11.8078 2.28589 11.8854 2.40617 11.9689C4.85979 13.6548 8.23044 13.7013 10.6933 12.0447C10.9373 11.8576 11.1981 11.705 11.5004 11.6272C12.0882 11.4762 12.6363 11.6921 12.9517 12.2064C13.3121 12.7937 13.3075 13.367 12.8635 13.823C12.1824 14.522 11.3633 15.0278 10.4532 15.3807C9.59261 15.7144 8.65001 15.8823 7.71709 15.9939C7.85787 16.1471 7.92422 16.2224 8.01224 16.3109C9.27903 17.5837 10.5513 18.8512 11.814 20.1279C12.2442 20.5629 12.334 21.1023 12.0972 21.6082C11.8382 22.1612 11.2585 22.525 10.6901 22.4861C10.3299 22.4612 10.0491 22.2819 9.79952 22.0306C8.84356 21.0686 7.86962 20.1244 6.93301 19.1442C6.66043 18.8592 6.52933 18.9131 6.28878 19.1606C5.32706 20.1507 4.34966 21.1255 3.36651 22.0949C2.92505 22.5301 2.39971 22.6084 1.88775 22.3598C1.34352 22.096 0.997216 21.5405 1.02394 20.9822C1.04238 20.6046 1.22809 20.3161 1.4873 20.0573C2.74095 18.8055 3.99115 17.5505 5.24181 16.2966C5.32452 16.2132 5.40171 16.1247 5.52221 15.9959Z" fill="#1B2B49"/>
<path d="M6.56111 11.6354C3.51856 11.6251 1.02369 9.10279 1.04143 6.05541C1.05894 2.97438 3.55542 0.491497 6.62792 0.500022C9.70665 0.508317 12.1778 3.02691 12.1623 6.13997C12.1467 9.18113 9.63453 11.646 6.56111 11.6354ZM9.32624 6.06278C9.32094 4.54968 8.1159 3.34511 6.6058 3.34373C5.08303 3.34211 3.86717 4.56858 3.87892 6.0955C3.89021 7.60283 5.10561 8.79888 6.61986 8.79335C8.1295 8.78805 9.33131 7.57564 9.32624 6.06278Z" fill="#1B2B49"/>
</svg>
