<svg width="24" height="25" viewBox="0 0 24 25" fill="none" xmlns="http://www.w3.org/2000/svg">
<path d="M21.2347 15.9405C19.8878 15.9405 18.5653 15.7298 17.312 15.3157C16.6979 15.1062 15.943 15.2984 15.5682 15.6833L13.0945 17.5507C10.2257 16.0193 8.45863 14.2528 6.94819 11.4056L8.76061 8.99633C9.23149 8.52608 9.40039 7.83915 9.19804 7.19462C8.7821 5.93478 8.57081 4.61289 8.57081 3.26539C8.57086 2.29194 7.77892 1.5 6.80554 1.5H2.76533C1.79194 1.5 1 2.29194 1 3.26533C1 14.4229 10.0772 23.5 21.2347 23.5C22.2081 23.5 23.0001 22.7081 23.0001 21.7347V17.7058C23 16.7324 22.2081 15.9405 21.2347 15.9405Z" fill="#1B2B49"/>
</svg>
