<svg width="22" height="14" viewBox="0 0 22 14" fill="none" xmlns="http://www.w3.org/2000/svg">
<path d="M21.8833 11.8358C21.8567 11.7784 21.8319 11.7308 21.8088 11.6926C21.4271 11.0052 20.6977 10.1614 19.621 9.16098L19.5982 9.13807L19.5868 9.12684L19.5753 9.11533H19.5638C19.0751 8.6495 18.7657 8.33628 18.6361 8.17592C18.399 7.87045 18.3458 7.56125 18.4754 7.24796C18.567 7.01125 18.9109 6.51136 19.5064 5.7476C19.8196 5.34283 20.0676 5.01842 20.2508 4.77402C21.572 3.01758 22.1448 1.89519 21.9691 1.40641L21.9008 1.29219C21.855 1.22342 21.7366 1.16052 21.5459 1.10314C21.3548 1.04589 21.1105 1.03643 20.8126 1.07458L17.5138 1.09737C17.4604 1.07843 17.3841 1.0802 17.2846 1.10314C17.1853 1.12609 17.1357 1.13761 17.1357 1.13761L17.0783 1.16629L17.0327 1.20076C16.9945 1.22354 16.9525 1.26362 16.9066 1.32091C16.861 1.378 16.8229 1.445 16.7924 1.52135C16.4332 2.44535 16.0249 3.30443 15.5666 4.09856C15.284 4.57209 15.0245 4.98248 14.7876 5.32995C14.5509 5.67731 14.3523 5.93323 14.1921 6.09728C14.0316 6.26149 13.8868 6.39304 13.7567 6.49242C13.6269 6.59184 13.5277 6.63384 13.4591 6.61848C13.3903 6.60311 13.3255 6.58787 13.2641 6.57262C13.1573 6.50386 13.0714 6.41034 13.0066 6.29198C12.9415 6.17363 12.8977 6.02467 12.8748 5.84521C12.852 5.66563 12.8385 5.51117 12.8346 5.38131C12.8311 5.2516 12.8327 5.06813 12.8405 4.83143C12.8484 4.5946 12.852 4.43436 12.852 4.35035C12.852 4.06013 12.8576 3.74515 12.869 3.40533C12.8805 3.06552 12.8899 2.79628 12.8977 2.59792C12.9055 2.39937 12.9091 2.1893 12.9091 1.96784C12.9091 1.74638 12.8956 1.5727 12.869 1.44665C12.8427 1.32075 12.8023 1.19855 12.749 1.08008C12.6955 0.961722 12.6171 0.870169 12.5142 0.805175C12.4111 0.740262 12.283 0.688748 12.1305 0.650474C11.7257 0.558881 11.2103 0.509333 10.584 0.50163C9.16374 0.486384 8.25113 0.578098 7.84641 0.77665C7.68605 0.86054 7.54094 0.975162 7.41119 1.12015C7.2737 1.28822 7.25452 1.37993 7.35378 1.39502C7.81203 1.46366 8.13643 1.62787 8.32736 1.88748L8.39617 2.02505C8.44969 2.12431 8.50313 2.30003 8.55661 2.55199C8.61001 2.80394 8.64447 3.08265 8.65963 3.38796C8.69775 3.9455 8.69775 4.42277 8.65963 4.81979C8.6214 5.21698 8.58529 5.52618 8.55083 5.74764C8.51637 5.9691 8.46485 6.14856 8.39617 6.28597C8.32736 6.42342 8.28159 6.50743 8.25864 6.53792C8.23573 6.56841 8.21663 6.58763 8.20147 6.59517C8.10221 6.6332 7.99898 6.65258 7.89214 6.65258C7.78514 6.65258 7.6554 6.59906 7.5027 6.4921C7.35005 6.38514 7.19161 6.23822 7.0274 6.05111C6.86319 5.86395 6.678 5.60241 6.47175 5.26644C6.26565 4.93048 6.05181 4.53342 5.83035 4.07525L5.64713 3.74298C5.53259 3.52922 5.37612 3.21797 5.17757 2.80951C4.97889 2.4009 4.80329 2.00564 4.65063 1.62382C4.58961 1.46346 4.49794 1.34138 4.37577 1.25736L4.31844 1.2229C4.28033 1.19241 4.21915 1.16003 4.13522 1.12553C4.05117 1.09107 3.96346 1.06635 3.87175 1.05115L0.733227 1.07394C0.412511 1.07394 0.194901 1.14659 0.0803196 1.29171L0.0344628 1.36035C0.0115545 1.39859 0 1.45965 0 1.5437C0 1.62771 0.0229083 1.73082 0.0687651 1.8529C0.526932 2.92971 1.02518 3.96821 1.5635 4.96856C2.10183 5.9689 2.56963 6.7747 2.96661 7.38524C3.36367 7.99623 3.7684 8.57287 4.18079 9.11489C4.59318 9.6571 4.86616 10.0046 4.99972 10.1572C5.13343 10.3102 5.23847 10.4245 5.31482 10.5009L5.60123 10.7757C5.7845 10.959 6.05362 11.1786 6.40872 11.4343C6.7639 11.6902 7.15711 11.9422 7.58856 12.1906C8.02009 12.4386 8.5221 12.6409 9.09489 12.7974C9.6676 12.9541 10.225 13.017 10.7672 12.9866H12.0845C12.3517 12.9636 12.5541 12.8796 12.6917 12.7346L12.7372 12.6772C12.7679 12.6316 12.7966 12.5608 12.8231 12.4655C12.8499 12.37 12.8632 12.2649 12.8632 12.1505C12.8553 11.8222 12.8803 11.5263 12.9375 11.2629C12.9946 10.9995 13.0596 10.801 13.1324 10.6673C13.2052 10.5337 13.2872 10.4209 13.3786 10.3295C13.4701 10.238 13.5354 10.1825 13.5737 10.1634C13.6117 10.1442 13.6421 10.1311 13.665 10.1233C13.8482 10.0622 14.0639 10.1214 14.3123 10.301C14.5606 10.4804 14.7934 10.702 15.0111 10.9654C15.2288 11.229 15.4903 11.5247 15.7957 11.853C16.1013 12.1814 16.3685 12.4255 16.5975 12.5861L16.8265 12.7236C16.9794 12.8153 17.178 12.8993 17.4224 12.9756C17.6663 13.052 17.8801 13.071 18.0636 13.0329L20.9959 12.9872C21.2859 12.9872 21.5116 12.9391 21.6716 12.8439C21.832 12.7484 21.9273 12.6433 21.9581 12.5289C21.9887 12.4144 21.9904 12.2845 21.9639 12.1392C21.9367 11.9944 21.91 11.8931 21.8833 11.8358Z" fill="#1B2B49"/>
</svg>
